<svg viewBox="0 0 275.81 74.49" xmlns="http://www.w3.org/2000/svg"><path d="m100.07 53.41h24.37v19.51h-24.38l-6.06-5.71v-8.05z" fill="#fff200"/><g fill="#1d252c"><path d="m56.43 25.78h-14.89v-4.84h12.15v-7.04h-12.15v-3.96h14.92v-7.49h-24.89v30.8h24.86z"/><path d="m81.9 2.45v7.49h8.14v23.31h9.9v-23.31h8.15v-7.49z"/><path d="m83.37 47.03-6.53-10.47h-9.98l11.53 19.8v11h9.96v-11l11.53-19.8h-9.98z"/><path d="m24.33 16.97.47-.17c.3-.14.66-.39 1.09-.74.42-.35.84-.75 1.27-1.21.42-.46.79-1.07 1.1-1.84s.46-1.57.46-2.42c0-2.22-1-4.13-3.01-5.74-2-1.6-4.74-2.41-8.21-2.41h-15.04v30.8h15.92c4.08 0 12.53-.76 12.53-8.81 0-6.15-6.44-7.42-6.58-7.48m-11.9-7.28h3.67c.74 0 1.34.22 1.8.65.47.43.7.97.7 1.61s-.23 1.17-.7 1.6c-.46.43-1.07.65-1.8.65h-3.67zm6.85 15.64c-.57.54-1.29.81-2.16.81h-4.69v-5.53h4.69c.87 0 1.59.27 2.16.8s.86 1.18.86 1.95-.29 1.42-.86 1.97"/><path d="m32.25 51.07.47-.17c.3-.14.66-.39 1.08-.74s.84-.76 1.27-1.21c.42-.46.79-1.07 1.1-1.84s.46-1.57.46-2.42c0-2.22-1-4.13-3.01-5.73-2-1.61-4.74-2.41-8.21-2.41h-15.01v30.8h15.89c4.08 0 12.53-.76 12.53-8.81 0-6.16-6.44-7.42-6.58-7.48m-11.86-7.29h3.64c.74 0 1.34.22 1.8.65.47.43.7.97.7 1.61s-.23 1.17-.7 1.61c-.47.43-1.07.65-1.8.65h-3.64v-4.51zm6.82 15.64c-.57.54-1.29.81-2.16.81h-4.66v-5.53h4.66c.87 0 1.59.27 2.16.8s.86 1.18.86 1.95-.29 1.42-.86 1.97"/><path d="m70.64 25.28c-.54.47-1.3.71-2.27.71s-1.97-.26-3.02-.79-1.74-.96-2.1-1.28c-.2-.18-.37-.34-.52-.49l-5.88 5.58.37.37c.36.37.91.82 1.65 1.33.74.52 1.61 1.03 2.59 1.55s2.21.96 3.67 1.32c1.47.36 2.98.55 4.54.55 3.9 0 7-1.01 9.3-3.03 2.31-2.02 3.46-4.45 3.46-7.3 0-1.65-.33-3.09-1-4.34-.67-1.24-1.5-2.18-2.49-2.81-1-.63-2.07-1.19-3.23-1.7-1.06-.46-2.05-.8-2.97-1.04-.09-.02-.18-.05-.27-.07-.99-.24-1.82-.54-2.48-.9s-.99-.78-.99-1.26c0-.57.23-1.04.69-1.42.46-.37 1.11-.56 1.96-.56 2.01 0 3.24.9 3.87 1.56l5.9-5.6-.11-.13c-.26-.33-.7-.71-1.33-1.13s-1.36-.85-2.2-1.28-1.92-.8-3.27-1.11c-1.34-.31-2.74-.46-4.2-.46-3.7 0-6.67.98-8.92 2.93-2.26 1.95-3.38 4.25-3.38 6.88 0 1.4.25 2.66.75 3.78s1.14 2.01 1.91 2.66c.77.66 1.64 1.24 2.59 1.74.8.42 1.6.77 2.42 1.05.15.05.31.11.46.16.97.31 1.84.59 2.62.86.78.26 1.42.55 1.92.85s.75.66.75 1.08c0 .67-.27 1.25-.82 1.72"/><path d="m56.46 54.85c0 2.03-1.64 3.69-3.68 3.7-2.05.01-3.73-1.65-3.73-3.7v-18.3h-9.97v17.83c0 7.35 5.96 13.31 13.31 13.31h.62c7.35 0 13.32-5.96 13.32-13.31v-17.83h-9.88v18.3z"/><path d="m98.85 63.15c0 .67-.54 1.21-1.21 1.21s-1.21-.54-1.21-1.21.54-1.21 1.21-1.21 1.21.54 1.21 1.21"/><path d="m144.04 36.61h6.49v12.77h12.94v-12.77h6.41v30.74h-6.41v-12.86h-12.94v12.86h-6.49z"/><path d="m173.62 56.39v-.34c0-7.05 4.86-11.7 11.39-11.7 5.68 0 10.79 3.35 10.79 11.44v1.59h-16.34c.21 4 2.28 6.24 5.89 6.24 2.97 0 4.47-1.2 4.86-3.27h5.5c-.73 4.82-4.56 7.48-10.54 7.48-6.71 0-11.57-4.3-11.57-11.44zm16.52-2.66c-.21-3.61-2.06-5.29-5.12-5.29s-4.95 1.98-5.46 5.29z"/><path d="m197.57 61.34c0-5.2 4.9-6.45 10.15-7.35 2.79-.47 4.08-1.2 4.08-2.79s-1.03-2.62-3.74-2.62-3.87 1.2-4.08 3.27h-5.55c.43-5.2 4.64-7.48 9.89-7.48s9.25 2.24 9.25 7.83v15.18h-5.63v-2.79c-1.38 1.85-3.35 3.27-6.84 3.27-4.08 0-7.52-1.98-7.52-6.49zm14.28-1.89v-3.53c-.6.6-1.89 1.12-4.04 1.59-2.32.47-4.51 1.29-4.51 3.48 0 1.63.95 2.75 3.35 2.75 2.97 0 5.2-1.63 5.2-4.3z"/><path d="m222.04 35.75h5.76v31.6h-5.76z"/><path d="m233.48 60.87v-11.78h-2.97v-4.21h2.97v-4.9h5.76v4.9h4.82v4.21h-4.82v11.27c0 1.89.9 2.75 2.54 2.75.95 0 1.72-.13 2.45-.39v4.52c-.9.26-2.06.56-3.7.56-4.6 0-7.05-2.45-7.05-6.92z"/><path d="m247.28 35.75h5.76v12.73c1.12-2.24 3.61-4.13 7.31-4.13 4.47 0 7.61 2.62 7.61 8.77v14.23h-5.76v-13.54c0-3.18-1.29-4.69-4.17-4.69s-4.99 1.72-4.99 5.16v13.07h-5.76z"/><path d="m269.6 46.83h-.73v-.23h1.73v.23h-.72v2.11h-.29v-2.11zm1.45-.23h.4l.75 1.84.74-1.84h.4v2.34h-.28v-1.98l-.82 1.98h-.1l-.82-1.98v1.98h-.26v-2.34z"/></g></svg>