<svg width="76" height="61" viewBox="0 0 76 61" fill="none" xmlns="http://www.w3.org/2000/svg">
<g clip-path="url(#clip0_333_15583)">
<path d="M52.1244 26.9514C51.2284 26.8864 51.4684 24.7544 49.5724 24.9904C48.2284 25.1534 48.0844 26.7804 47.9724 28.0504C47.8364 29.4674 47.6764 30.6714 47.2684 30.4924C46.8604 30.3134 47.0124 29.6784 46.8604 27.7004C46.6924 25.4374 46.1484 24.1924 44.8204 23.9724C43.2204 23.7124 42.5724 26.2024 42.2924 27.1724C42.0124 28.1404 41.4924 28.5724 41.2124 28.5724C40.9324 28.5724 40.4924 28.4414 40.3644 27.3024C40.2364 26.1624 41.1644 24.2004 42.4364 22.8254C46.2764 18.7064 51.7964 15.8004 51.7964 9.43537C51.7884 3.41237 47.5724 0.22937 43.6284 0.22937C42.6414 0.232576 41.6663 0.444907 40.7674 0.85237C39.864 1.26226 39.0566 1.85706 38.3974 2.59837C37.4604 3.53437 37.0604 4.58437 36.7004 4.58437C36.3404 4.58437 35.9484 3.53437 35.0204 2.59837C34.3607 1.85777 33.5534 1.26337 32.6504 0.85337C31.7511 0.445858 30.7757 0.233202 29.7884 0.22937C25.8764 0.22937 21.6284 3.40437 21.6284 9.41937C21.6284 15.7844 27.1404 18.6894 30.9884 22.8094C32.2604 24.1844 33.1644 26.1374 33.0604 27.2854C32.9564 28.4334 32.4764 28.4654 32.2604 28.4574C32.0444 28.4494 31.5324 28.2374 31.1644 26.8294C30.7964 25.4214 30.4124 24.3874 29.0124 24.2894C27.4524 24.1924 27.0444 26.3734 26.9084 28.1074C26.7964 29.5974 26.7564 32.3974 26.2044 32.1774C25.8844 32.0384 25.7244 28.8324 25.4604 26.3734C25.2604 24.4694 25.0124 20.3994 23.9244 19.6754C22.6044 18.7954 21.4444 19.7804 21.0844 21.3434C20.8124 22.5074 20.7724 23.4764 20.4284 25.0384C20.1724 26.2034 19.8844 26.9364 18.7724 26.9364H15.6444V28.6464H16.3724C20.4204 28.8164 21.5564 28.3934 22.0444 26.5374C22.3444 25.1944 22.5774 23.8354 22.7404 22.4674C22.8844 21.6544 23.3724 21.2554 23.5884 23.5014C23.6924 24.6164 23.7964 26.0414 23.9644 27.4814C24.4604 31.7314 24.5884 34.6694 26.4124 34.8074C28.4364 34.9874 28.4524 31.2014 28.5884 29.7044C28.6684 28.7514 28.7884 26.0334 29.2604 26.3264C29.9164 26.7244 29.6684 30.1434 32.7804 30.2814C34.5644 30.3714 35.2204 28.9954 35.3404 27.4654C35.4604 25.9354 34.1004 23.8924 32.2604 22.0524C27.8284 17.6164 24.7484 15.3294 24.7484 10.4454C24.7484 5.56237 28.1644 2.97337 31.1484 2.97337C31.8044 2.97337 33.8204 2.85937 36.2524 6.86437C36.2992 6.9463 36.3667 7.01452 36.4481 7.06225C36.5295 7.10997 36.622 7.13553 36.7164 7.13637C36.811 7.13666 36.9039 7.11158 36.9855 7.06374C37.0671 7.0159 37.1344 6.94705 37.1804 6.86437C39.5804 2.85937 41.6204 2.97437 42.2844 2.97437C45.2684 2.97437 48.6844 5.41537 48.6844 10.4454C48.6844 15.4754 45.5724 17.5184 41.1724 21.9544C39.3404 23.7944 38.0844 26.0244 38.1164 27.4894C38.1484 28.9544 38.9164 30.3944 40.6764 30.3054C43.6844 30.1664 43.5164 27.6594 44.1324 26.3004C44.4684 25.5764 44.9324 25.5764 45.0044 26.6674C45.0764 27.7574 45.1164 28.1404 45.2364 29.3044C45.3804 30.8014 45.9084 32.4864 47.2364 32.3564C48.3804 32.2424 49.0364 31.5424 49.2524 29.3694C49.3084 28.7424 49.3564 28.4574 49.4364 27.5464C49.4844 27.0254 49.6364 26.6344 49.8604 26.7324C50.0844 26.8294 50.2924 27.3424 50.4444 27.7004C50.6094 28.0384 50.8714 28.3174 51.1964 28.5004C51.5204 28.6834 51.8914 28.7624 52.2604 28.7264H56.9484V27.0164C55.1164 27.0164 52.6924 27.0164 52.1484 26.9604M4.35637 36.7108C6.30037 36.7108 7.41237 37.8418 7.41237 39.1518C7.45492 39.62 7.31961 40.087 7.03337 40.4598C6.74837 40.8298 6.33337 41.0758 5.87637 41.1468C5.56437 41.2368 5.53237 41.5938 5.87637 41.6508C6.43437 41.7179 6.94365 42.0017 7.29437 42.4408C7.64931 42.8834 7.82046 43.4455 7.77237 44.0108C7.77237 45.5418 6.38037 46.5678 4.72437 46.5678H0.276367V36.7118L4.35637 36.7108ZM2.07637 44.9968H4.47637C5.38037 44.9968 5.90037 44.5898 5.90037 43.8078C5.90037 42.8478 5.01237 42.6928 4.34837 42.3758C4.16892 42.3088 4.01455 42.1879 3.90637 42.0298C3.8252 41.9111 3.77189 41.7756 3.75042 41.6334C3.72895 41.4912 3.73987 41.346 3.78236 41.2086C3.82485 41.0712 3.89783 40.9452 3.99583 40.84C4.09384 40.7347 4.21435 40.653 4.34837 40.6008C4.90037 40.3648 5.55637 40.2108 5.57237 39.3478C5.57237 38.6718 5.09237 38.2408 4.25237 38.2408H2.07637V44.9968ZM10.4444 39.8368V40.5848C10.6845 40.2823 10.9956 40.0438 11.3501 39.8904C11.7046 39.7371 12.0915 39.6737 12.4764 39.7058V41.3828C11.2204 41.3828 10.5964 41.9688 10.5964 43.0108V46.5678H8.78037V39.8368H10.4444ZM13.2764 38.0208C13.276 37.7341 13.3876 37.4585 13.5874 37.2528C13.7874 37.0478 14.0574 36.9328 14.3404 36.9298C14.6254 36.9298 14.8974 37.0448 15.0984 37.2498C15.3005 37.4555 15.4138 37.7324 15.4138 38.0208C15.4138 38.3092 15.3005 38.5861 15.0984 38.7918C14.8984 38.9968 14.6254 39.1118 14.3404 39.1118C14.1997 39.1105 14.0608 39.0812 13.9315 39.0258C13.8022 38.9704 13.6853 38.8898 13.5874 38.7888C13.3879 38.583 13.2767 38.3074 13.2774 38.0208H13.2764ZM15.2044 39.8358V46.5348H13.3884V39.8368L15.2044 39.8358ZM21.2764 45.3868C21.1087 45.7783 20.8281 46.1108 20.4704 46.3418C20.1134 46.5718 19.6984 46.6868 19.2764 46.6728C19.0064 46.6998 18.7339 46.6656 18.479 46.5726C18.2241 46.4796 17.9935 46.3303 17.8044 46.1358C17.6131 45.9393 17.4668 45.7035 17.3757 45.4449C17.2845 45.1862 17.2506 44.9109 17.2764 44.6378V41.3428H16.1884V39.8368H17.2764V37.5988H19.0524V39.8368H20.5564V41.3428H19.0684V44.6478C19.0684 44.9978 19.2204 45.1678 19.4524 45.1678C19.6844 45.1678 19.8364 45.0218 20.0444 44.6388L20.2204 44.2978L21.4444 44.9978L21.2764 45.3868ZM21.9964 38.0208C21.996 37.7341 22.1076 37.4585 22.3074 37.2528C22.5074 37.0478 22.7774 36.9328 23.0604 36.9298C23.3454 36.9298 23.6174 37.0448 23.8184 37.2498C24.0205 37.4555 24.1338 37.7324 24.1338 38.0208C24.1338 38.3092 24.0205 38.5861 23.8184 38.7918C23.6184 38.9968 23.3454 39.1118 23.0604 39.1118C22.9197 39.1105 22.7808 39.0812 22.6515 39.0258C22.5222 38.9704 22.4053 38.8898 22.3074 38.7888C22.1079 38.583 21.9957 38.3074 21.9964 38.0208ZM23.9244 39.8358V46.5348H22.1404V39.8368L23.9244 39.8358ZM26.9164 44.6218C26.9164 44.9718 27.3164 45.1518 27.9164 45.1518C28.5164 45.1518 28.8524 44.9558 28.8524 44.5898C28.8524 43.3518 25.4364 44.1738 25.4364 41.7728C25.4364 40.5608 26.4524 39.7378 28.1484 39.7378C28.5914 39.7177 29.0337 39.7913 29.4464 39.9538C29.8594 40.1168 30.2344 40.3638 30.5484 40.6828L29.6604 41.7898C29.2678 41.3967 28.736 41.1743 28.1804 41.1708C27.5084 41.1708 27.2444 41.4068 27.2444 41.7078C27.2444 42.7498 30.6764 42.1638 30.6764 44.5078C30.6764 45.8178 29.6044 46.6408 27.8924 46.6408C26.2924 46.6408 25.1724 45.9488 25.1724 44.8008C25.1788 44.4457 25.284 44.0994 25.4764 43.8008L27.0284 44.3288C26.9693 44.4167 26.931 44.5169 26.9164 44.6218ZM37.9324 42.2218C37.9324 42.7748 37.7964 43.4908 37.7964 44.3938C37.7931 45.1163 37.8846 45.8361 38.0684 46.5348H36.2844C36.1018 45.8553 36.0103 45.1545 36.0124 44.4508C36.0124 43.6368 36.1324 43.0188 36.1324 42.5388C36.159 42.3644 36.1451 42.1863 36.0919 42.0181C36.0386 41.8499 35.9475 41.6962 35.8254 41.5688C35.7038 41.444 35.5545 41.3495 35.3897 41.293C35.2248 41.2366 35.049 41.2197 34.8764 41.2438C34.6634 41.2232 34.4485 41.2519 34.2484 41.3277C34.0483 41.4035 33.8683 41.5243 33.7224 41.6808C33.5735 41.838 33.4619 42.0267 33.3957 42.2328C33.3296 42.439 33.3107 42.6574 33.3404 42.8718V46.5758H31.5564V36.4998H33.3164V40.5698C33.5639 40.2808 33.8742 40.0521 34.2236 39.9011C34.573 39.7502 34.9522 39.681 35.3324 39.6988C35.6714 39.6688 36.0124 39.7138 36.3324 39.8288C36.6541 39.946 36.9474 40.1298 37.193 40.3684C37.4386 40.6069 37.6309 40.8947 37.7574 41.2128C37.8854 41.5328 37.9454 41.8758 37.9324 42.2218ZM50.6844 36.7108V46.5348H48.8604V42.1648H47.6764C45.5644 42.1648 44.5244 43.2148 44.5244 44.9718V46.5348H42.6924V36.7118H44.5244V41.8148C44.9861 41.3957 45.5267 41.0726 46.1145 40.8643C46.7023 40.6561 47.3257 40.5669 47.9484 40.6018H48.8524V36.7128H50.6844V36.7108ZM57.9004 45.6558C57.5245 46.0171 57.0764 46.2946 56.5855 46.47C56.0946 46.6455 55.5721 46.715 55.0524 46.6738C54.5937 46.7121 54.1322 46.6493 53.7004 46.4898C53.2663 46.3298 52.8722 46.0773 52.5454 45.7498C52.2171 45.4183 51.9628 45.021 51.7992 44.584C51.6356 44.1471 51.5665 43.6804 51.5964 43.2148C51.5819 42.7429 51.665 42.273 51.8403 41.8346C52.0156 41.3962 52.2795 40.9987 52.6154 40.6668C52.9461 40.3373 53.3427 40.0815 53.7792 39.916C54.2158 39.7506 54.6823 39.6793 55.1484 39.7068C56.9244 39.7058 57.7404 40.7718 57.7404 41.8708C57.7404 43.7028 55.5324 44.3128 53.4844 44.3128C53.7164 44.8578 54.1964 45.1268 55.0844 45.1268C55.7921 45.1394 56.4811 44.8997 57.0284 44.4508L57.9004 45.6558ZM53.2764 43.0428C54.9324 43.0428 55.9884 42.7748 55.9884 41.9528C55.9884 41.5208 55.7004 41.2028 55.0284 41.2028C54.7925 41.1992 54.5586 41.2449 54.3414 41.3368C54.122 41.4295 53.9241 41.5663 53.7598 41.7387C53.5955 41.911 53.4684 42.1153 53.3864 42.3388C53.303 42.5638 53.2656 42.8032 53.2764 43.0428ZM63.3884 46.5348C63.2945 46.234 63.2118 45.9298 63.1404 45.6228C62.8796 45.97 62.5376 46.2478 62.1444 46.4318C61.7534 46.6145 61.3232 46.6973 60.8924 46.6728C59.4204 46.6728 58.5564 45.8188 58.5564 44.5898C58.5564 43.3598 59.3564 42.6278 61.4924 42.5798C62.1244 42.5798 62.7724 42.5388 62.7724 42.0098C62.7724 41.4798 62.3964 41.2598 61.6044 41.2598C61.32 41.2372 61.0347 41.2889 60.7764 41.4098C60.5164 41.532 60.292 41.7185 60.1244 41.9518L58.7484 41.0898C59.0626 40.6314 59.4901 40.2621 59.9894 40.0178C60.4859 39.7756 61.0372 39.6681 61.5884 39.7058C63.3724 39.7058 64.5564 40.5848 64.5644 42.5138C64.5071 43.8707 64.6664 45.2281 65.0364 46.5348H63.3884ZM62.9324 44.4508C62.9324 44.1908 62.9324 43.8898 62.8684 43.5888C62.4854 43.7198 62.08 43.7721 61.6764 43.7428C61.1484 43.7428 60.3324 43.8248 60.3324 44.6298C60.3317 44.7428 60.3543 44.8546 60.3989 44.9584C60.4435 45.0621 60.509 45.1556 60.5914 45.2328C60.6732 45.3087 60.77 45.3667 60.8756 45.403C60.9812 45.4394 61.0931 45.4533 61.2044 45.4438C61.5484 45.4238 61.8824 45.3238 62.1824 45.1518C62.4814 44.9798 62.7384 44.7388 62.9324 44.4508ZM67.6124 39.8358V40.5848C67.8514 40.2848 68.1584 40.0488 68.5064 39.8948C68.8539 39.7418 69.2337 39.6765 69.6124 39.7048V41.3828C68.3564 41.3828 67.7404 41.9688 67.7404 43.0108V46.5678H65.9564V39.8368L67.6124 39.8358ZM75.3084 45.3868C75.1407 45.7783 74.8601 46.1108 74.5024 46.3418C74.1454 46.5718 73.7304 46.6868 73.3084 46.6728C73.0422 46.693 72.7748 46.6541 72.5254 46.5588C72.2737 46.4624 72.0462 46.312 71.8589 46.1181C71.6716 45.9243 71.5291 45.6917 71.4414 45.4368C71.351 45.1808 71.3166 44.9083 71.3404 44.6378V41.3428H70.2444V39.8368H71.3404V37.5988H73.1244V39.8368H74.6044V41.3428H73.1244V44.6478C73.1244 44.9978 73.2764 45.1678 73.5084 45.1678C73.7404 45.1678 73.8924 45.0218 74.1004 44.6388L74.2764 44.2978L75.5004 44.9978L75.3084 45.3868ZM4.8 51.758V54.786C5.50137 54.2982 6.34746 54.0627 7.2 54.118H8.504V55.665H6.904C5.472 55.665 4.848 56.308 4.848 57.366V60.011H3V50.244H9.04V51.79L4.8 51.758ZM9.232 56.707C9.20596 55.993 9.39026 55.2871 9.762 54.677C10.131 54.0716 10.6725 53.5904 11.317 53.295C11.9573 53.0019 12.6713 52.9099 13.365 53.031C14.058 53.152 14.7 53.481 15.208 53.975C15.7183 54.472 16.0703 55.1086 16.22 55.805C16.37 56.505 16.313 57.233 16.054 57.899C15.7976 58.562 15.35 59.1339 14.768 59.542C14.1908 59.9463 13.5047 60.1666 12.8 60.174C12.3365 60.2069 11.8712 60.1412 11.435 59.981C10.9969 59.8199 10.5976 59.5685 10.263 59.243C9.92601 58.9151 9.66075 58.5207 9.484 58.085C9.30654 57.6478 9.22077 57.1787 9.232 56.707ZM14.496 56.707C14.496 55.477 13.856 54.737 12.768 54.737C12.5139 54.7256 12.2606 54.7724 12.0273 54.8738C11.7941 54.9752 11.587 55.1285 11.422 55.322C11.2534 55.5165 11.1303 55.7461 11.0614 55.9942C10.9926 56.2422 10.9798 56.5024 11.024 56.756C11.001 57.0015 11.0286 57.2492 11.1051 57.4837C11.1816 57.7181 11.3055 57.9344 11.469 58.119C11.6302 58.3026 11.8288 58.4498 12.0514 58.5506C12.2741 58.6514 12.5156 58.7035 12.76 58.7035C13.0044 58.7035 13.2459 58.6514 13.4686 58.5506C13.6912 58.4498 13.8898 58.3026 14.051 58.119C14.2155 57.935 14.34 57.7189 14.4166 57.4842C14.4932 57.2496 14.5203 57.0016 14.496 56.756V56.707ZM17.16 57.643C17.16 57.089 17.296 56.365 17.296 55.486C17.3008 54.7605 17.2094 54.0375 17.024 53.336H18.808C18.992 54.018 19.084 54.722 19.08 55.429C19.08 56.243 18.952 56.853 18.952 57.325C18.952 58.139 19.328 58.619 20.136 58.619C20.3449 58.6408 20.5561 58.6151 20.7537 58.5437C20.9513 58.4724 21.1302 58.3573 21.277 58.207C21.4264 58.056 21.5407 57.874 21.6117 57.6739C21.6828 57.4737 21.7088 57.2604 21.688 57.049V53.337H23.472V60.011H21.808V59.279C21.526 59.572 21.1852 59.802 20.808 59.954C20.432 60.106 20.028 60.175 19.624 60.158C19.294 60.176 18.964 60.1231 18.6562 60.0026C18.3485 59.8822 18.0701 59.6972 17.84 59.46C17.6075 59.2204 17.4271 58.9352 17.3101 58.6226C17.1931 58.3099 17.142 57.9764 17.16 57.643ZM31.136 55.722C31.136 56.275 31 56.992 31 57.895C30.9968 58.6171 31.0883 59.3366 31.272 60.035H29.488C29.3055 59.3558 29.214 58.6553 29.216 57.952C29.216 57.138 29.336 56.512 29.336 56.039C29.362 55.8655 29.3481 55.6884 29.2953 55.5212C29.2424 55.3539 29.152 55.201 29.031 55.074C28.9104 54.9493 28.7624 54.8546 28.5986 54.7974C28.4348 54.7403 28.26 54.7224 28.088 54.745C27.8788 54.7253 27.6678 54.7533 27.4709 54.8267C27.274 54.9001 27.0963 55.0171 26.951 55.169C26.8031 55.3216 26.6906 55.5049 26.6216 55.7059C26.5527 55.907 26.5289 56.1207 26.552 56.332V60.012H24.8V53.337H26.4V54.07C26.6779 53.7942 27.0075 53.5759 27.3699 53.4278C27.7324 53.2797 28.1205 53.2047 28.512 53.207C28.8518 53.1742 29.1947 53.2155 29.517 53.328C29.84 53.441 30.135 53.622 30.383 53.86C30.6313 54.1006 30.8266 54.3904 30.9562 54.7109C31.0859 55.0314 31.1471 55.3765 31.136 55.722ZM37.6 60.012C37.5121 59.7198 37.4532 59.4197 37.424 59.116C37.1677 59.4629 36.8306 59.742 36.442 59.929C36.0552 60.1145 35.6285 60.2014 35.2 60.182C34.7601 60.1829 34.3248 60.092 33.922 59.915C33.5169 59.7366 33.1533 59.4761 32.854 59.15C32.553 58.8218 32.3223 58.4356 32.176 58.015C32.029 57.5927 31.9691 57.1451 32 56.699C31.9881 56.2457 32.0656 55.7944 32.228 55.371C32.3897 54.9496 32.6334 54.5645 32.945 54.238C33.2533 53.9136 33.6241 53.6549 34.035 53.4775C34.4459 53.3002 34.8884 53.2078 35.336 53.206C35.9527 53.1878 36.5523 53.4101 37.008 53.826V50H38.816V55.623C38.7996 57.1075 38.9607 58.5887 39.296 60.035L37.6 60.01V60.012ZM37.088 56.658C37.088 55.413 36.432 54.721 35.416 54.721C34.4 54.721 33.76 55.413 33.76 56.658C33.76 57.903 34.4 58.595 35.416 58.595C36.432 58.595 37.112 57.935 37.112 56.682L37.088 56.658ZM44.944 60.011C44.8491 59.7115 44.769 59.4074 44.704 59.1C44.4414 59.4467 44.0981 59.7241 43.704 59.908C43.3117 60.0911 42.8802 60.1742 42.448 60.15C40.984 60.15 40.12 59.295 40.12 58.066C40.12 56.836 40.92 56.104 43.056 56.056C43.688 56.056 44.328 56.015 44.328 55.486C44.328 54.956 43.96 54.729 43.168 54.729C42.882 54.7084 42.5954 54.7618 42.336 54.884C42.076 55.006 41.85 55.194 41.68 55.429L40.312 54.566C40.628 54.106 41.056 53.736 41.553 53.494C42.0498 53.2516 42.6015 53.144 43.153 53.182C44.936 53.182 46.113 54.062 46.128 55.99C46.068 57.348 46.225 58.705 46.592 60.011H44.944ZM44.496 57.887C44.496 57.618 44.456 57.325 44.424 57.024C44.0416 57.1571 43.6353 57.2072 43.232 57.171C42.712 57.171 41.888 57.261 41.888 58.066C41.8876 58.1796 41.9107 58.2921 41.9557 58.3963C42.0008 58.5006 42.067 58.5945 42.15 58.672C42.2325 58.7483 42.3303 58.8062 42.4368 58.8421C42.5433 58.8779 42.6561 58.8909 42.768 58.88C43.11 58.8627 43.4434 58.7665 43.742 58.599C44.042 58.431 44.3 58.196 44.496 57.911V57.887ZM52.256 58.888C52.0883 59.2794 51.8077 59.6119 51.45 59.843C51.0946 60.0715 50.6783 60.1869 50.256 60.174C49.9884 60.1947 49.7196 60.1555 49.4691 60.0591C49.2186 59.9627 48.9927 59.8117 48.808 59.617C48.6199 59.4213 48.4767 59.187 48.3883 58.9304C48.2999 58.6738 48.2684 58.401 48.296 58.131V54.875H47.2V53.337H48.296V51.099H50.08V53.337H51.56V54.843H50.08V58.147C50.08 58.497 50.232 58.66 50.464 58.66C50.696 58.66 50.848 58.522 51.048 58.131L51.232 57.797L52.448 58.497L52.256 58.888ZM53 51.523C53 51.233 53.113 50.956 53.314 50.752C53.515 50.547 53.788 50.432 54.072 50.432C54.2204 50.4188 54.37 50.4372 54.5108 50.486C54.6516 50.5347 54.7805 50.6128 54.889 50.715C54.9996 50.8175 55.0877 50.942 55.1476 51.0804C55.2075 51.2188 55.2379 51.3682 55.237 51.519C55.2369 51.6697 55.206 51.8187 55.1462 51.957C55.0863 52.0953 54.9988 52.2198 54.889 52.323C54.7803 52.4249 54.6514 52.5026 54.5106 52.5512C54.3698 52.5998 54.2204 52.6181 54.072 52.605C53.789 52.605 53.518 52.492 53.317 52.289C53.1155 52.0848 53.0017 51.8099 53 51.523ZM54.936 53.338V60.012H53.152V53.338H54.936ZM56.144 56.708C56.1199 55.9948 56.3059 55.2903 56.679 54.682C57.0488 54.0784 57.5907 53.5992 58.235 53.306C58.8754 53.0156 59.5888 52.9263 60.281 53.05C60.9751 53.1748 61.6154 53.5063 62.118 54.001C62.6255 54.4998 62.9742 55.1375 63.12 55.834C63.2672 56.5329 63.206 57.2596 62.944 57.924C62.684 58.5845 62.2336 59.1529 61.65 59.557C61.0709 59.9573 60.384 60.1728 59.68 60.175C59.2191 60.2033 58.7574 60.1341 58.325 59.972C57.8907 59.8084 57.4952 59.5561 57.164 59.231C56.831 58.9035 56.5689 58.511 56.394 58.078C56.2185 57.6431 56.1334 57.1769 56.144 56.708ZM61.408 56.708C61.408 55.478 60.76 54.738 59.68 54.738C59.4268 54.7271 59.1744 54.7739 58.942 54.875C58.7081 54.9785 58.5001 55.1325 58.3329 55.326C58.1657 55.5194 58.0435 55.7476 57.975 55.994C57.9061 56.2424 57.8928 56.5029 57.936 56.757C57.9125 57.0026 57.9399 57.2504 58.0164 57.4849C58.093 57.7194 58.2171 57.9356 58.381 58.12C58.5426 58.3031 58.7413 58.4497 58.9639 58.5501C59.1864 58.6505 59.4278 58.7024 59.672 58.7024C59.9162 58.7024 60.1576 58.6505 60.3801 58.5501C60.6027 58.4497 60.8014 58.3031 60.963 58.12C61.1274 57.9359 61.2518 57.7197 61.3284 57.4851C61.405 57.2505 61.4321 57.0026 61.408 56.757V56.708ZM70.76 55.723C70.76 56.276 70.624 56.993 70.624 57.896C70.6213 58.6181 70.7127 59.3375 70.896 60.036H69.112C68.9332 59.356 68.8418 58.6561 68.84 57.953C68.84 57.139 68.968 56.513 68.968 56.04C68.9947 55.8665 68.981 55.6893 68.9281 55.5219C68.8752 55.3546 68.7845 55.2016 68.663 55.075C68.5427 54.95 68.3946 54.855 68.2308 54.7979C68.067 54.7407 67.892 54.7229 67.72 54.746C67.5108 54.7264 67.2998 54.7544 67.1029 54.8278C66.9061 54.9012 66.7283 55.0182 66.583 55.17C66.435 55.3225 66.3225 55.5059 66.2535 55.7069C66.1846 55.9079 66.1608 56.1217 66.184 56.333V60.013H64.4V53.338H66.056V54.071C66.3339 53.7952 66.6635 53.577 67.026 53.4289C67.3884 53.2808 67.7765 53.2057 68.168 53.208C68.5062 53.1799 68.8464 53.2249 69.1656 53.34C69.4849 53.4551 69.7756 53.6376 70.018 53.875C70.2634 54.1145 70.4562 54.4025 70.5839 54.7207C70.7117 55.0389 70.7717 55.3803 70.76 55.723Z" fill="#ED002D"/>
</g>
<defs>
<clipPath id="clip0_333_15583">
<rect width="76" height="61" fill="white"/>
</clipPath>
</defs>
</svg>
