<svg version="1.2" xmlns="http://www.w3.org/2000/svg" viewBox="0 0 1554 655" width="1554" height="655"><defs><clipPath clipPathUnits="userSpaceOnUse" id="cp1"><path d="m714.8 392.07c28.29 0 49.35 13.22 60.06 28.02v-25.19h36.17v176.29c0 47.19-30.51 82.77-84.63 82.77-46.28 0-80.55-22.97-84.96-61.38h35.57c5.33 17.95 24.53 30.21 49.39 30.21 27.68 0 48.46-17.03 48.46-51.64v-28.95c-11.04 14.8-31.77 28.95-60.1 28.95-45.63 0-81.81-36.83-81.81-90.33 0.05-53.49 36.22-88.75 81.85-88.75zm7.52 147.95c27.04 0 52.54-21.11 52.54-58.55 0-37.12-25.5-58.22-52.54-58.22-26.76 0-52.55 20.13-52.55 57.57 0 37.44 25.79 59.16 52.55 59.2z"/></clipPath><clipPath clipPathUnits="userSpaceOnUse" id="cp2"><path d="m870.48 420.09v-25.19h-35.85v173.42h35.85v-91.26c0-36.83 16.37-47.83 42.81-47.83h9.13v-37.16c-24.57 0-41.87 10.68-51.94 28.02z"/></clipPath><clipPath clipPathUnits="userSpaceOnUse" id="cp3"><path d="m1007.05 384.67c-4.61 1.34-9.09 2.91-13.46 4.65-4.28 1.74-8.4 3.64-12.45 5.74q-6.01 3.11-11.6 6.76c-3.71 2.42-7.35 4.97-10.83 7.72-3.51 2.75-6.87 5.7-10.06 8.77q-4.92 4.72-9.3 9.99-4.53 5.46-8.4 11.4c-5.26 8.05-9.34 16.82-12.13 26q-1.69 5.7-2.58 11.65c-0.89 5.86-1.14 11.76-0.65 17.67 0.85 11.2 4.36 21.99 10.3 31.53 7 11.2 17.63 21.11 32.34 28.15 8.32 3.96 17.18 6.71 26.27 8.24 10.18 1.7 20.49 2.07 30.76 1.14 11.15-1.01 22.14-3.4 32.73-7.08 11-3.8 21.46-8.9 31.25-15.16 9.57-6.15 18.3-13.47 26.06-21.76 7.2-7.68 13.3-16.37 18.15-25.71 4.33-8.41 7.36-17.43 8.93-26.73 1.42-8.33 1.42-16.86 0.08-25.19h-43.36c-0.04 5.42-0.93 10.35-2.63 15.85-1.86 5.87-4.45 11.44-7.72 16.66-3.6 5.66-7.84 10.92-12.61 15.65-5.05 5.01-10.63 9.46-16.65 13.3-6.1 3.92-12.57 7.24-19.32 9.87-6.59 2.58-13.42 4.48-20.41 5.66-6.55 1.13-13.22 1.49-19.85 1.17-6.1-0.32-12.12-1.37-17.94-3.15-10.67-3.32-18.92-8.74-24.82-15.41-5.21-5.82-8.77-12.94-10.38-20.58q-0.42-2.01-0.65-4.08c-0.69-5.74-0.4-11.57 0.81-17.19 1.57-7.15 4.32-13.99 8.08-20.25q2.85-4.81 6.31-9.18c2.26-2.87 4.64-5.58 7.23-8.13q3.81-3.81 8.04-7.2c8.57-6.83 18.11-12.29 28.34-16.25q5.32-2.06 10.83-3.52c2.18-0.57 4.36-1.09 6.63-1.54l5.29-12.04c-3.68 0.68-7.19 1.53-10.63 2.58z"/></clipPath><clipPath clipPathUnits="userSpaceOnUse" id="cp4"><path d="m1017.96 399.15c-6.83 0.6-13.54 2.06-20.04 4.32-6.71 2.31-13.14 5.46-19.12 9.3-5.86 3.76-11.24 8.21-15.96 13.31-4.41 4.73-8.13 10.02-11.12 15.77-2.67 5.13-4.49 10.67-5.46 16.37-0.84 5.1-0.88 10.31-0.04 15.45h26.56c0.04-3.32 0.6-6.59 1.61-9.71q1.7-5.4 4.73-10.19c2.19-3.47 4.81-6.67 7.72-9.58q4.67-4.6 10.19-8.17 5.59-3.64 11.84-6.06 6.06-2.38 12.49-3.48c4-0.69 8.08-0.93 12.16-0.73 3.72 0.21 7.44 0.85 11 1.94 6.5 2.03 11.6 5.34 15.19 9.43 3.2 3.55 5.38 7.92 6.35 12.57q0.23 1.22 0.4 2.51c0.41 3.51 0.25 7.07-0.52 10.51-0.97 4.37-2.63 8.57-4.93 12.41-1.17 1.98-2.43 3.84-3.84 5.62q-2.08 2.61-4.41 4.98c-1.57 1.57-3.19 3.03-4.93 4.4-1.7 1.38-3.51 2.67-5.37 3.84q-2.8 1.81-5.78 3.32-3.03 1.53-6.19 2.75-3.28 1.28-6.63 2.14c-1.33 0.37-2.66 0.65-4.04 0.93l-3.23 7.4c2.18-0.48 4.36-1.01 6.43-1.62q4.18-1.22 8.24-2.87c2.67-1.09 5.17-2.22 7.6-3.51q3.65-1.94 7.11-4.13c2.31-1.45 4.49-3.07 6.63-4.73 2.14-1.66 4.2-3.48 6.14-5.38q3.04-2.9 5.7-6.1 2.78-3.35 5.14-7c3.23-4.93 5.74-10.27 7.43-15.93q1.03-3.53 1.58-7.11c0.52-3.6 0.69-7.2 0.4-10.84-0.52-6.83-2.66-13.46-6.3-19.33-4.29-6.83-10.79-12.94-19.81-17.22-5.09-2.43-10.5-4.09-16.08-5.02q-5.94-1.02-12.01-1.01c-2.26 0.12-4.52 0.25-6.83 0.45z"/></clipPath><clipPath clipPathUnits="userSpaceOnUse" id="cp5"><path d="m1266.37 394.9v96.64c0 31.78-17.3 48.15-43.74 48.15-26.1 0-43.4-16.37-43.4-48.15v-96.64h-35.57v101.98c0 48.48 30.84 73.95 71.42 73.95 20.45 0 39.97-8.49 51.29-23.29v20.78h35.84v-173.42z"/></clipPath><clipPath clipPathUnits="userSpaceOnUse" id="cp6"><path d="m1422.09 392.07c45.63 0 81.48 35.26 81.48 88.75 0 53.5-35.85 90.33-81.48 90.33-23.32 0.08-45.43-10.15-60.42-28.02v107.64h-35.85v-255.87h35.85v25.52c11.03-14.52 32.09-28.35 60.42-28.35zm-7.88 147.91c27.08 0 52.86-21.72 52.86-59.16 0-37.44-25.82-57.57-52.86-57.57-26.76 0-52.54 21.06-52.54 58.22 0 37.44 25.78 58.51 52.54 58.51z"/></clipPath><clipPath clipPathUnits="userSpaceOnUse" id="cp7"><path d="m1.97 274.17c0 54.46 35.24 89.68 84.96 89.68 42.47 0 70.16-23.61 79.9-57.62h-38.68c-6.63 17.95-19.8 27.38-41.22 27.38-28.94 0-48.14-21.39-48.14-59.48 0-37.77 19.2-59.16 48.14-59.16 21.38 0 35.24 10.72 41.22 27.38h38.68c-9.74-36.51-37.43-57.62-79.9-57.62-49.72 0.04-84.96 35.3-84.96 89.44z"/></clipPath><clipPath clipPathUnits="userSpaceOnUse" id="cp8"><path d="m214.97 212.79v-25.19h-35.85v173.42h35.85v-91.26c0-36.83 16.36-47.83 42.8-47.83h9.13v-37.16c-24.57 0-41.87 10.71-51.93 28.02z"/></clipPath><clipPath clipPathUnits="userSpaceOnUse" id="cp9"><path d="m346.12 184.77c29.26 0 49.39 13.87 60.1 28.02v-25.19h36.17v173.46h-36.17v-25.8c-11 14.76-31.77 28.63-60.71 28.63-44.98 0-81.15-36.83-81.15-90.33 0-53.53 36.17-88.79 81.76-88.79zm7.6 147.95c27.08 0 52.54-21.11 52.54-58.55 0-37.12-25.46-58.23-52.54-58.23-26.76 0-52.55 20.18-52.55 57.62 0 37.44 25.79 59.16 52.55 59.16z"/></clipPath><clipPath clipPathUnits="userSpaceOnUse" id="cp10"><path d="m501.88 207.45v-19.81h-35.85v173.38h35.85v-96.92c0-31.78 17.3-48.16 43.73-48.16 26.11 0 43.41 16.38 43.41 48.16v96.92h35.57v-102.3c0-48.48-30.52-73.95-71.09-73.95-20.78 0-39.98 8.49-51.62 22.68z"/></clipPath><clipPath clipPathUnits="userSpaceOnUse" id="cp11"><path d="m721.14 184.69c49.39 0 84.31 34.33 84.31 85.31 0.04 5.91-0.36 11.81-1.25 17.63h-132.44c2.5 28.67 22.95 45.98 49.38 45.98 22.03 0 34.32-10.68 40.91-24.22h38.71c-9.74 30.24-37.1 54.46-79.58 54.46-49.71 0-86.53-35.22-86.53-89.68 0-54.47 35.21-89.4 86.49-89.48zm-49.06 74.07h95.95c-0.65-26.76-21.71-43.75-48.46-43.75-24.21 0-43.73 16.38-47.49 43.75z"/></clipPath><clipPath clipPathUnits="userSpaceOnUse" id="cp12"><path d="m1014.69 187.6l-35.89 138.81-35.24-138.81h-37.43l-36.82 139.46-36.17-139.46h-36.5l54.12 173.46h37.75l34.92-128.13 34.92 128.13h37.75l53.79-173.46z"/></clipPath><clipPath clipPathUnits="userSpaceOnUse" id="cp13"><path d="m1122.89 184.77c29.26 0 49.38 13.87 60.1 28.02v-25.19h36.17v173.46h-36.21v-25.8c-11 14.76-31.77 28.63-60.71 28.63-44.98 0-81.16-36.83-81.16-90.33 0.04-53.53 36.22-88.79 81.81-88.79zm7.55 147.95c27.08 0 52.55-21.11 52.55-58.55 0-37.12-25.51-58.23-52.55-58.23-26.75 0-52.54 20.18-52.54 57.62 0 37.44 25.79 59.16 52.54 59.16z"/></clipPath><clipPath clipPathUnits="userSpaceOnUse" id="cp14"><path d="m1278.61 212.79v-25.19h-35.85v173.42h35.85v-91.26c0-36.83 16.37-47.83 42.8-47.83h9.14v-37.16c-24.54 0-41.87 10.71-51.94 28.02z"/></clipPath><clipPath clipPathUnits="userSpaceOnUse" id="cp15"><path d="m1414.53 184.69c49.39 0 84.31 34.33 84.31 85.31 0.04 5.91-0.36 11.81-1.25 17.63h-132.45c2.51 28.67 22.96 45.98 49.39 45.98 22.03 0 34.28-10.68 40.9-24.22h38.68c-9.74 30.24-37.1 54.46-79.58 54.46-49.71 0-86.53-35.22-86.53-89.68 0-54.47 35.24-89.4 86.53-89.48zm-49.06 74.07h95.95c-0.65-26.76-21.71-43.75-48.46-43.75-24.21 0-43.73 16.38-47.49 43.75z"/></clipPath><clipPath clipPathUnits="userSpaceOnUse" id="cp16"><path d="m12.88 10.5v25.07h-11.88v17.02h11.88v55.84c0 20.5 11.16 28.02 29.1 28.02h16.49v-17.38h-12.81c-8.77 0-11.72-3.12-11.72-10.64v-55.8h24.53v-17.02h-24.53v-25.07h-21.06z"/></clipPath><clipPath clipPathUnits="userSpaceOnUse" id="cp17"><path d="m68.01 1v135.49h20.86v-56.36c0-18.52 10.06-28.02 25.42-28.02 15.19 0 25.26 9.54 25.26 28.02v56.4h20.69v-59.52c0-28.22-17.58-43.02-40.09-43.02-13.02 0-24.33 4.94-31.28 13.39v-46.38z"/></clipPath><clipPath clipPathUnits="userSpaceOnUse" id="cp18"><path d="m220.5 33.95c28.74 0 49.07 19.94 49.07 49.62q0.06 5.16-0.73 10.27h-77.07c1.45 16.65 13.37 26.72 28.73 26.72 12.82 0 19.97-6.23 23.81-14.11h22.51c-5.7 17.59-21.62 31.7-46.32 31.7-28.94 0-50.36-20.5-50.36-52.2 0-31.66 20.49-52 50.36-52zm-28.57 43.06h55.81c-0.4-15.56-12.65-25.47-28.21-25.47-14.06 0-25.42 9.54-27.6 25.47z"/></clipPath></defs><style>.a{stroke:#000;stroke-miterlimit:10;stroke-width:.4}</style><path fill-rule="evenodd" class="a" d="m714.8 392.1c28.3 0 49.3 13.2 60.1 28v-25.2h36.1v176.3c0 47.2-30.5 82.8-84.6 82.8-46.3 0-80.6-23-85-61.4h35.6c5.3 17.9 24.5 30.2 49.4 30.2 27.7 0 48.5-17 48.5-51.6v-29c-11.1 14.8-31.8 29-60.1 29-45.7 0-81.8-36.9-81.8-90.4 0-53.5 36.2-88.7 81.8-88.7zm7.5 147.9c27.1 0 52.6-21.1 52.6-58.5 0-37.1-25.5-58.3-52.6-58.3-26.7 0-52.5 20.2-52.5 57.6 0 37.5 25.8 59.2 52.5 59.2z"/><g clip-path="url(#cp1)"><path class="a" d="m811 392.1v261.8h-178v-261.8z"/></g><path fill-rule="evenodd" class="a" d="m714.8 392.1c28.3 0 49.3 13.2 60.1 28v-25.2h36.1v176.3c0 47.2-30.5 82.8-84.6 82.8-46.3 0-80.6-23-85-61.4h35.6c5.3 17.9 24.5 30.2 49.4 30.2 27.7 0 48.5-17 48.5-51.6v-29c-11.1 14.8-31.8 29-60.1 29-45.7 0-81.8-36.9-81.8-90.4 0-53.5 36.2-88.7 81.8-88.7zm7.5 147.9c27.1 0 52.6-21.1 52.6-58.5 0-37.1-25.5-58.3-52.6-58.3-26.7 0-52.5 20.2-52.5 57.6 0 37.5 25.8 59.2 52.5 59.2z"/><path class="a" d="m870.5 420.1v-25.2h-35.9v173.4h35.9v-91.2c0-36.9 16.4-47.9 42.8-47.9h9.1v-37.1c-24.6 0-41.9 10.6-51.9 28z"/><g clip-path="url(#cp2)"><path class="a" d="m922.4 392.1v176.2h-87.8v-176.2z"/></g><path fill-rule="evenodd" class="a" d="m870.5 420.1v-25.2h-35.9v173.4h35.9v-91.2c0-36.9 16.4-47.9 42.8-47.9h9.1v-37.1c-24.6 0-41.9 10.6-51.9 28z"/><path class="a" d="m1007.1 384.7c-4.7 1.3-9.1 2.9-13.5 4.6-4.3 1.8-8.4 3.7-12.5 5.8q-6 3.1-11.6 6.7c-3.7 2.4-7.3 5-10.8 7.7-3.5 2.8-6.9 5.7-10.1 8.8q-4.9 4.7-9.2 10-4.6 5.5-8.5 11.4c-5.2 8-9.3 16.8-12.1 26q-1.7 5.7-2.6 11.6-1.4 8.9-0.6 17.7c0.8 11.2 4.4 22 10.3 31.6 7 11.2 17.6 21.1 32.3 28.1 8.4 4 17.2 6.7 26.3 8.2 10.2 1.7 20.5 2.1 30.8 1.2 11.1-1 22.1-3.4 32.7-7.1 11-3.8 21.5-8.9 31.2-15.2 9.6-6.1 18.3-13.4 26.1-21.7 7.2-7.7 13.3-16.4 18.2-25.7 4.3-8.4 7.3-17.5 8.9-26.8 1.4-8.3 1.4-16.8 0.1-25.1h-43.4c0 5.4-0.9 10.3-2.6 15.8-1.9 5.9-4.5 11.4-7.7 16.7-3.6 5.6-7.9 10.9-12.7 15.6-5 5-10.6 9.5-16.6 13.3-6.1 3.9-12.6 7.2-19.3 9.9-6.6 2.6-13.4 4.5-20.4 5.6-6.6 1.2-13.3 1.5-19.9 1.2-6.1-0.3-12.1-1.4-17.9-3.1-10.7-3.4-18.9-8.8-24.8-15.4-5.3-5.9-8.8-13-10.4-20.6q-0.4-2-0.7-4.1c-0.7-5.8-0.4-11.6 0.8-17.2 1.6-7.2 4.4-14 8.1-20.3q2.9-4.8 6.3-9.1c2.3-2.9 4.7-5.6 7.3-8.2q3.8-3.8 8-7.2c8.6-6.8 18.1-12.2 28.3-16.2q5.4-2.1 10.9-3.5c2.1-0.6 4.3-1.1 6.6-1.6l5.3-12c-3.7 0.7-7.2 1.5-10.6 2.6z"/><g clip-path="url(#cp3)"><path class="a" d="m1133.8 382v183h-218.6v-183z"/></g><path fill-rule="evenodd" class="a" d="m1007.1 384.7c-4.7 1.3-9.1 2.9-13.5 4.6-4.3 1.8-8.4 3.7-12.5 5.8q-6 3.1-11.6 6.7c-3.7 2.4-7.3 5-10.8 7.7-3.5 2.8-6.9 5.7-10.1 8.8q-4.9 4.7-9.2 10-4.6 5.5-8.5 11.4c-5.2 8-9.3 16.8-12.1 26q-1.7 5.7-2.6 11.6-1.4 8.9-0.6 17.7c0.8 11.2 4.4 22 10.3 31.6 7 11.2 17.6 21.1 32.3 28.1 8.4 4 17.2 6.7 26.3 8.2 10.2 1.7 20.5 2.1 30.8 1.2 11.1-1 22.1-3.4 32.7-7.1 11-3.8 21.5-8.9 31.2-15.2 9.6-6.1 18.3-13.4 26.1-21.7 7.2-7.7 13.3-16.4 18.2-25.7 4.3-8.4 7.3-17.5 8.9-26.8 1.4-8.3 1.4-16.8 0.1-25.1h-43.4c0 5.4-0.9 10.3-2.6 15.8-1.9 5.9-4.5 11.4-7.7 16.7-3.6 5.6-7.9 10.9-12.7 15.6-5 5-10.6 9.5-16.6 13.3-6.1 3.9-12.6 7.2-19.3 9.9-6.6 2.6-13.4 4.5-20.4 5.6-6.6 1.2-13.3 1.5-19.9 1.2-6.1-0.3-12.1-1.4-17.9-3.1-10.7-3.4-18.9-8.8-24.8-15.4-5.3-5.9-8.8-13-10.4-20.6q-0.4-2-0.7-4.1c-0.7-5.8-0.4-11.6 0.8-17.2 1.6-7.2 4.4-14 8.1-20.3q2.9-4.8 6.3-9.1c2.3-2.9 4.7-5.6 7.3-8.2q3.8-3.8 8-7.2c8.6-6.8 18.1-12.2 28.3-16.2q5.4-2.1 10.9-3.5c2.1-0.6 4.3-1.1 6.6-1.6l5.3-12c-3.7 0.7-7.2 1.5-10.6 2.6z"/><path class="a" d="m1018 399.1c-6.9 0.7-13.6 2.1-20.1 4.4-6.7 2.3-13.1 5.4-19.1 9.3-5.9 3.7-11.2 8.2-16 13.3-4.4 4.7-8.1 10-11.1 15.7-2.6 5.2-4.5 10.7-5.4 16.4-0.9 5.1-0.9 10.3-0.1 15.5h26.6c0-3.3 0.6-6.6 1.6-9.7q1.7-5.4 4.7-10.2c2.2-3.5 4.8-6.7 7.7-9.6q4.7-4.6 10.2-8.2 5.6-3.6 11.9-6 6-2.4 12.5-3.5c4-0.7 8-0.9 12.1-0.7 3.7 0.2 7.5 0.8 11 1.9 6.5 2 11.6 5.3 15.2 9.4 3.2 3.6 5.4 7.9 6.4 12.6q0.2 1.2 0.4 2.5c0.4 3.5 0.2 7.1-0.6 10.5-0.9 4.4-2.6 8.6-4.9 12.4-1.2 2-2.4 3.9-3.8 5.6-1.4 1.8-2.9 3.4-4.4 5-1.6 1.6-3.2 3-5 4.4-1.7 1.4-3.5 2.7-5.3 3.9q-2.8 1.8-5.8 3.3-3.1 1.5-6.2 2.7-3.3 1.3-6.6 2.2c-1.4 0.3-2.7 0.6-4.1 0.9l-3.2 7.4c2.2-0.5 4.4-1 6.4-1.6q4.2-1.2 8.3-2.9c2.6-1.1 5.1-2.2 7.6-3.5q3.6-1.9 7.1-4.1 3.4-2.3 6.6-4.8c2.1-1.6 4.2-3.4 6.1-5.3q3.1-2.9 5.7-6.1 2.8-3.4 5.2-7c3.2-5 5.7-10.3 7.4-16q1-3.5 1.6-7.1c0.5-3.6 0.7-7.2 0.4-10.8-0.5-6.9-2.7-13.5-6.3-19.3-4.3-6.9-10.8-13-19.8-17.3-5.1-2.4-10.5-4.1-16.1-5q-5.9-1-12-1c-2.3 0.1-4.5 0.2-6.8 0.4z"/><g clip-path="url(#cp4)"><path class="a" d="m1079.2 398.8v111.8h-133.8v-111.8z"/></g><path fill-rule="evenodd" class="a" d="m1018 399.1c-6.9 0.7-13.6 2.1-20.1 4.4-6.7 2.3-13.1 5.4-19.1 9.3-5.9 3.7-11.2 8.2-16 13.3-4.4 4.7-8.1 10-11.1 15.7-2.6 5.2-4.5 10.7-5.4 16.4-0.9 5.1-0.9 10.3-0.1 15.5h26.6c0-3.3 0.6-6.6 1.6-9.7q1.7-5.4 4.7-10.2c2.2-3.5 4.8-6.7 7.7-9.6q4.7-4.6 10.2-8.2 5.6-3.6 11.9-6 6-2.4 12.5-3.5c4-0.7 8-0.9 12.1-0.7 3.7 0.2 7.5 0.8 11 1.9 6.5 2 11.6 5.3 15.2 9.4 3.2 3.6 5.4 7.9 6.4 12.6q0.2 1.2 0.4 2.5c0.4 3.5 0.2 7.1-0.6 10.5-0.9 4.4-2.6 8.6-4.9 12.4-1.2 2-2.4 3.9-3.8 5.6-1.4 1.8-2.9 3.4-4.4 5-1.6 1.6-3.2 3-5 4.4-1.7 1.4-3.5 2.7-5.3 3.9q-2.8 1.8-5.8 3.3-3.1 1.5-6.2 2.7-3.3 1.3-6.6 2.2c-1.4 0.3-2.7 0.6-4.1 0.9l-3.2 7.4c2.2-0.5 4.4-1 6.4-1.6q4.2-1.2 8.3-2.9c2.6-1.1 5.1-2.2 7.6-3.5q3.6-1.9 7.1-4.1 3.4-2.3 6.6-4.8c2.1-1.6 4.2-3.4 6.1-5.3q3.1-2.9 5.7-6.1 2.8-3.4 5.2-7c3.2-5 5.7-10.3 7.4-16q1-3.5 1.6-7.1c0.5-3.6 0.7-7.2 0.4-10.8-0.5-6.9-2.7-13.5-6.3-19.3-4.3-6.9-10.8-13-19.8-17.3-5.1-2.4-10.5-4.1-16.1-5q-5.9-1-12-1c-2.3 0.1-4.5 0.2-6.8 0.4z"/><path class="a" d="m1266.4 394.9v96.6c0 31.8-17.3 48.2-43.8 48.2-26.1 0-43.4-16.4-43.4-48.2v-96.6h-35.5v102c0 48.5 30.8 73.9 71.4 73.9 20.4 0 39.9-8.5 51.3-23.3v20.8h35.8v-173.4z"/><g clip-path="url(#cp5)"><path class="a" d="m1302.2 394.9v175.9h-158.5v-175.9z"/></g><path fill-rule="evenodd" class="a" d="m1266.4 394.9v96.6c0 31.8-17.3 48.2-43.8 48.2-26.1 0-43.4-16.4-43.4-48.2v-96.6h-35.5v102c0 48.5 30.8 73.9 71.4 73.9 20.4 0 39.9-8.5 51.3-23.3v20.8h35.8v-173.4z"/><path fill-rule="evenodd" class="a" d="m1422.1 392.1c45.6 0 81.5 35.2 81.5 88.7 0 53.5-35.9 90.4-81.5 90.4-23.3 0-45.4-10.2-60.4-28.1v107.7h-35.9v-255.9h35.9v25.5c11-14.5 32.1-28.3 60.4-28.3zm-7.9 147.9c27.1 0 52.9-21.7 52.9-59.2 0-37.4-25.9-57.6-52.9-57.6-26.7 0-52.5 21.1-52.5 58.3 0 37.4 25.8 58.5 52.5 58.5z"/><g clip-path="url(#cp6)"><path class="a" d="m1503.6 392.1v258.7h-177.8v-258.7z"/></g><path fill-rule="evenodd" class="a" d="m1422.1 392.1c45.6 0 81.5 35.2 81.5 88.7 0 53.5-35.9 90.4-81.5 90.4-23.3 0-45.4-10.2-60.4-28.1v107.7h-35.9v-255.9h35.9v25.5c11-14.5 32.1-28.3 60.4-28.3zm-7.9 147.9c27.1 0 52.9-21.7 52.9-59.2 0-37.4-25.9-57.6-52.9-57.6-26.7 0-52.5 21.1-52.5 58.3 0 37.4 25.8 58.5 52.5 58.5z"/><path class="a" d="m1508.2 368.3v5.1h-11.3v27h-5.6v-27h-11.3v-5.1zm44.6 0v32.1h-5.6v-26.5l-12 26.5h-3.6l-11.6-26.5v26.5h-5.6v-32.1h9.1l9.9 22.2 10.5-22.2z"/><path class="a" d="m2 274.2c0 54.4 35.2 89.6 84.9 89.6 42.5 0 70.2-23.6 79.9-57.6h-38.6c-6.7 18-19.9 27.4-41.3 27.4-28.9 0-48.1-21.4-48.1-59.5 0-37.7 19.2-59.1 48.1-59.1 21.4 0 35.3 10.7 41.3 27.3h38.6c-9.7-36.5-37.4-57.6-79.9-57.6-49.7 0.1-84.9 35.3-84.9 89.5z"/><g clip-path="url(#cp7)"><path class="a" d="m166.8 184.8v179h-164.8v-179z"/></g><path fill-rule="evenodd" class="a" d="m2 274.2c0 54.4 35.2 89.6 84.9 89.6 42.5 0 70.2-23.6 79.9-57.6h-38.6c-6.7 18-19.9 27.4-41.3 27.4-28.9 0-48.1-21.4-48.1-59.5 0-37.7 19.2-59.1 48.1-59.1 21.4 0 35.3 10.7 41.3 27.3h38.6c-9.7-36.5-37.4-57.6-79.9-57.6-49.7 0.1-84.9 35.3-84.9 89.5z"/><path class="a" d="m215 212.8v-25.2h-35.9v173.4h35.9v-91.2c0-36.9 16.3-47.9 42.8-47.9h9.1v-37.1c-24.6 0-41.9 10.7-51.9 28z"/><g clip-path="url(#cp8)"><path class="a" d="m266.9 184.8v176.2h-87.8v-176.2z"/></g><path fill-rule="evenodd" class="a" d="m215 212.8v-25.2h-35.9v173.4h35.9v-91.2c0-36.9 16.3-47.9 42.8-47.9h9.1v-37.1c-24.6 0-41.9 10.7-51.9 28z"/><path fill-rule="evenodd" class="a" d="m346.1 184.8c29.3 0 49.4 13.8 60.1 28v-25.2h36.2v173.5h-36.2v-25.8c-11 14.7-31.7 28.6-60.7 28.6-45 0-81.1-36.8-81.1-90.3 0-53.6 36.1-88.8 81.7-88.8zm7.6 147.9c27.1 0 52.6-21.1 52.6-58.5 0-37.1-25.5-58.3-52.6-58.3-26.7 0-52.5 20.2-52.5 57.7 0 37.4 25.8 59.1 52.5 59.1z"/><g clip-path="url(#cp9)"><path class="a" d="m442.4 184.8v179h-178v-179z"/></g><path fill-rule="evenodd" class="a" d="m346.1 184.8c29.3 0 49.4 13.8 60.1 28v-25.2h36.2v173.5h-36.2v-25.8c-11 14.7-31.7 28.6-60.7 28.6-45 0-81.1-36.8-81.1-90.3 0-53.6 36.1-88.8 81.7-88.8zm7.6 147.9c27.1 0 52.6-21.1 52.6-58.5 0-37.1-25.5-58.3-52.6-58.3-26.7 0-52.5 20.2-52.5 57.7 0 37.4 25.8 59.1 52.5 59.1z"/><path class="a" d="m501.9 207.5v-19.9h-35.9v173.4h35.9v-96.9c0-31.8 17.3-48.2 43.7-48.2 26.1 0 43.4 16.4 43.4 48.2v96.9h35.6v-102.3c0-48.5-30.5-73.9-71.1-73.9-20.8 0-40 8.5-51.6 22.7z"/><g clip-path="url(#cp10)"><path class="a" d="m624.5 184.8v176.2h-158.5v-176.2z"/></g><path fill-rule="evenodd" class="a" d="m501.9 207.5v-19.9h-35.9v173.4h35.9v-96.9c0-31.8 17.3-48.2 43.7-48.2 26.1 0 43.4 16.4 43.4 48.2v96.9h35.6v-102.3c0-48.5-30.5-73.9-71.1-73.9-20.8 0-40 8.5-51.6 22.7z"/><path fill-rule="evenodd" class="a" d="m721.1 184.7c49.4 0 84.4 34.3 84.4 85.3 0 5.9-0.4 11.8-1.3 17.6h-132.4c2.5 28.7 22.9 46 49.3 46 22.1 0 34.4-10.7 40.9-24.2h38.8c-9.8 30.2-37.1 54.4-79.6 54.4-49.7 0-86.5-35.2-86.5-89.6 0-54.5 35.2-89.4 86.4-89.5zm-49 74.1h95.9c-0.6-26.8-21.7-43.8-48.4-43.8-24.2 0-43.8 16.4-47.5 43.8z"/><g clip-path="url(#cp11)"><path class="a" d="m805.5 184.8v179h-170.8v-179z"/></g><path fill-rule="evenodd" class="a" d="m721.1 184.7c49.4 0 84.4 34.3 84.4 85.3 0 5.9-0.4 11.8-1.3 17.6h-132.4c2.5 28.7 22.9 46 49.3 46 22.1 0 34.4-10.7 40.9-24.2h38.8c-9.8 30.2-37.1 54.4-79.6 54.4-49.7 0-86.5-35.2-86.5-89.6 0-54.5 35.2-89.4 86.4-89.5zm-49 74.1h95.9c-0.6-26.8-21.7-43.8-48.4-43.8-24.2 0-43.8 16.4-47.5 43.8z"/><path class="a" d="m1014.7 187.6l-35.9 138.8-35.2-138.8h-37.5l-36.8 139.5-36.2-139.5h-36.5l54.2 173.5h37.7l34.9-128.2 34.9 128.2h37.8l53.8-173.5z"/><g clip-path="url(#cp12)"><path class="a" d="m1049.9 187.6v173.4h-253.3v-173.4z"/></g><path class="a" d="m1014.7 187.6l-35.9 138.8-35.2-138.8h-37.5l-36.8 139.5-36.2-139.5h-36.5l54.2 173.5h37.7l34.9-128.2 34.9 128.2h37.8l53.8-173.5z"/><path fill-rule="evenodd" class="a" d="m1122.9 184.8c29.2 0 49.4 13.8 60.1 28v-25.2h36.2v173.5h-36.3v-25.8c-10.9 14.7-31.7 28.6-60.7 28.6-44.9 0-81.1-36.8-81.1-90.3 0-53.6 36.2-88.8 81.8-88.8zm7.5 147.9c27.1 0 52.6-21.1 52.6-58.5 0-37.1-25.5-58.3-52.6-58.3-26.7 0-52.5 20.2-52.5 57.7 0 37.4 25.8 59.1 52.5 59.1z"/><g clip-path="url(#cp13)"><path class="a" d="m1219.2 184.8v179h-178.1v-179z"/></g><path fill-rule="evenodd" class="a" d="m1122.9 184.8c29.2 0 49.4 13.8 60.1 28v-25.2h36.2v173.5h-36.3v-25.8c-10.9 14.7-31.7 28.6-60.7 28.6-44.9 0-81.1-36.8-81.1-90.3 0-53.6 36.2-88.8 81.8-88.8zm7.5 147.9c27.1 0 52.6-21.1 52.6-58.5 0-37.1-25.5-58.3-52.6-58.3-26.7 0-52.5 20.2-52.5 57.7 0 37.4 25.8 59.1 52.5 59.1z"/><path class="a" d="m1278.6 212.8v-25.2h-35.8v173.4h35.8v-91.2c0-36.9 16.4-47.9 42.8-47.9h9.1v-37.1c-24.5 0-41.8 10.7-51.9 28z"/><g clip-path="url(#cp14)"><path class="a" d="m1330.5 184.8v176.2h-87.7v-176.2z"/></g><path fill-rule="evenodd" class="a" d="m1278.6 212.8v-25.2h-35.8v173.4h35.8v-91.2c0-36.9 16.4-47.9 42.8-47.9h9.1v-37.1c-24.5 0-41.8 10.7-51.9 28z"/><path fill-rule="evenodd" class="a" d="m1414.5 184.7c49.4 0 84.3 34.3 84.3 85.3 0.1 5.9-0.3 11.8-1.2 17.6h-132.5c2.5 28.7 23 46 49.4 46 22.1 0 34.3-10.7 40.9-24.2h38.7c-9.7 30.2-37.1 54.4-79.6 54.4-49.7 0-86.5-35.2-86.5-89.6 0-54.5 35.2-89.4 86.5-89.5zm-49 74.1h95.9c-0.6-26.8-21.7-43.8-48.4-43.8-24.3 0-43.8 16.4-47.5 43.8z"/><g clip-path="url(#cp15)"><path class="a" d="m1498.8 184.8v179h-170.8v-179z"/></g><path fill-rule="evenodd" class="a" d="m1414.5 184.7c49.4 0 84.3 34.3 84.3 85.3 0.1 5.9-0.3 11.8-1.2 17.6h-132.5c2.5 28.7 23 46 49.4 46 22.1 0 34.3-10.7 40.9-24.2h38.7c-9.7 30.2-37.1 54.4-79.6 54.4-49.7 0-86.5-35.2-86.5-89.6 0-54.5 35.2-89.4 86.5-89.5zm-49 74.1h95.9c-0.6-26.8-21.7-43.8-48.4-43.8-24.3 0-43.8 16.4-47.5 43.8z"/><path class="a" d="m12.9 10.5v25.1h-11.9v17h11.9v55.8c0 20.5 11.1 28.1 29.1 28.1h16.5v-17.4h-12.8c-8.8 0-11.8-3.1-11.8-10.7v-55.8h24.6v-17h-24.6v-25.1z"/><g clip-path="url(#cp16)"><path class="a" d="m58.5 10.5v126h-57.5v-126z"/></g><path fill-rule="evenodd" class="a" d="m12.9 10.5v25.1h-11.9v17h11.9v55.8c0 20.5 11.1 28.1 29.1 28.1h16.5v-17.4h-12.8c-8.8 0-11.8-3.1-11.8-10.7v-55.8h24.6v-17h-24.6v-25.1z"/><path class="a" d="m68 1v135.5h20.9v-56.4c0-18.5 10-28 25.4-28 15.2 0 25.2 9.6 25.2 28v56.4h20.7v-59.5c0-28.2-17.5-43-40.1-43-13 0-24.3 4.9-31.2 13.4v-46.4z"/><g clip-path="url(#cp17)"><path class="a" d="m160.3 1v135.5h-92.3v-135.5z"/></g><path fill-rule="evenodd" class="a" d="m68 1v135.5h20.9v-56.4c0-18.5 10-28 25.4-28 15.2 0 25.2 9.6 25.2 28v56.4h20.7v-59.5c0-28.2-17.5-43-40.1-43-13 0-24.3 4.9-31.2 13.4v-46.4z"/><path fill-rule="evenodd" class="a" d="m220.5 34c28.7 0 49.1 19.9 49.1 49.6q0 5.1-0.8 10.2h-77c1.4 16.7 13.3 26.8 28.7 26.8 12.8 0 20-6.3 23.8-14.1h22.5c-5.7 17.5-21.6 31.7-46.3 31.7-28.9 0-50.4-20.5-50.4-52.2 0-31.7 20.5-52 50.4-52zm-28.6 43h55.8c-0.4-15.6-12.6-25.5-28.2-25.5-14 0-25.4 9.6-27.6 25.5z"/><g clip-path="url(#cp18)"><path class="a" d="m269.5 34v104.2h-99.4v-104.2z"/></g><path fill-rule="evenodd" class="a" d="m220.5 34c28.7 0 49.1 19.9 49.1 49.6q0 5.1-0.8 10.2h-77c1.4 16.7 13.3 26.8 28.7 26.8 12.8 0 20-6.3 23.8-14.1h22.5c-5.7 17.5-21.6 31.7-46.3 31.7-28.9 0-50.4-20.5-50.4-52.2 0-31.7 20.5-52 50.4-52zm-28.6 43h55.8c-0.4-15.6-12.6-25.5-28.2-25.5-14 0-25.4 9.6-27.6 25.5z"/></svg>