<svg width="849" height="447" viewBox="0 0 849 447" fill="none" xmlns="http://www.w3.org/2000/svg">
<mask id="mask0_247_494" style="mask-type:luminance" maskUnits="userSpaceOnUse" x="0" y="0" width="849" height="447">
<path d="M848.154 0H0V447H848.154V0Z" fill="white"/>
</mask>
<g mask="url(#mask0_247_494)">
<path d="M138.747 364.162H145.433V311.472H139.638V308.79H185.676L185.867 324.118H183.065C179.308 314.154 176.252 311.472 168.865 311.472H159.441V335.422C160.015 335.486 160.715 335.486 161.288 335.486C167.21 335.486 170.203 332.357 171.157 324.821H173.959V349.665H171.157C170.584 341.617 167.592 338.297 160.97 338.297C160.46 338.297 159.951 338.36 159.441 338.36V364.162H168.611C177.844 364.162 182.428 359.308 185.357 347.557H187.968L187.395 366.972H138.747V364.098V364.162Z" fill="#1D3A58"/>
<path d="M232.733 364.245H238.146V366.928C232.479 366.928 226.875 367.183 221.081 367.63V358.753C217.77 365.012 213.695 367.886 207.581 367.886C203.761 367.886 200.896 366.736 199.177 364.501C197.967 362.777 197.839 360.669 197.839 357.667V334.547H192.3V331.865C198.476 331.801 204.207 331.482 209.301 330.971V359.2C209.301 362.393 210.32 363.926 212.803 363.926C216.814 363.926 221.017 357.986 221.017 351.089V334.484H214.968V331.801C220.826 331.801 226.684 331.418 232.733 330.907V364.181V364.245Z" fill="#1D3A58"/>
<path d="M241.517 364.335H246.038V334.765H241.454V332.083C246.802 331.891 252.151 331.571 257.5 330.997V340.577C259.792 334.51 263.676 331.188 267.879 331.188C272.081 331.188 275.265 334.318 275.265 338.469C275.265 342.173 272.782 344.92 269.216 344.92C266.223 344.92 263.804 342.301 263.804 338.916C263.804 337.192 264.823 336.489 264.823 335.595C264.823 335.339 264.568 335.084 264.122 335.084C262.148 335.084 257.754 341.279 257.754 348.496V364.335H263.867V367.017H241.517V364.335Z" fill="#1D3A58"/>
<path d="M298.125 330.997C310.033 330.997 317.992 338.788 317.992 349.454C317.992 360.12 310.033 367.975 298.125 367.975C286.218 367.975 278.323 360.183 278.323 349.518C278.323 338.852 286.218 330.997 298.125 330.997ZM291.504 349.454V353.03C291.504 362.1 291.949 365.868 298.189 365.868C304.429 365.868 304.812 361.844 304.812 350.795V345.622C304.812 336.936 304.302 333.168 298.189 333.168C291.758 333.168 291.504 337.639 291.504 349.454Z" fill="#1D3A58"/>
<path d="M321.24 383.942H326.015V334.765H320.475V332.083C326.588 331.891 332.382 331.571 337.731 330.997V337.703C340.278 333.232 343.844 330.997 348.619 330.997C357.534 330.997 364.22 338.788 364.22 349.646C364.22 360.503 357.407 368.103 348.619 368.103C343.844 368.103 340.278 365.931 337.731 361.461V383.942H343.844V386.624H321.24V383.942ZM351.294 340.385C351.294 335.723 350.848 333.551 347.028 333.551C341.615 333.551 337.667 338.278 337.667 346.197V352.903C337.667 360.822 341.488 365.549 347.028 365.549C350.657 365.549 351.294 363.313 351.294 358.842V340.385Z" fill="#1D3A58"/>
<path d="M406.309 355.904C403.508 364.143 398.159 367.975 389.563 367.975C377.656 367.975 370.206 360.695 370.206 349.901C370.206 339.108 378.165 330.997 389.372 330.997C399.56 330.997 405.864 337.384 405.864 347.602V348.049H383.641V356.862C383.641 363.122 384.978 365.804 390.454 365.804C397.267 365.804 401.916 362.227 404.399 355.202L406.373 355.904H406.309ZM394.848 345.303V338.469C394.848 334.701 393.129 333.104 389.244 333.104C385.36 333.104 383.641 334.829 383.641 338.469V345.303H394.848Z" fill="#1D3A58"/>
<path d="M420.193 367.911C414.398 367.911 411.278 364.718 411.278 359.162C411.278 351.881 418.919 346.708 432.673 346.708V338.213C432.673 334.51 431.654 333.36 427.005 333.36C424.14 333.36 422.676 334.062 422.676 335.404C422.676 336.298 424.204 337.575 424.204 340.066C424.204 343.451 422.166 345.367 418.537 345.367C415.289 345.367 413.507 343.387 413.507 339.874C413.507 334.318 419.046 330.997 429.234 330.997C434.01 330.997 437.576 331.827 439.677 332.977C442.988 334.765 443.179 337 443.179 341.152V359.226C443.179 361.269 443.943 362.291 445.79 362.291C446.872 362.291 447.318 361.461 447.891 361.461C448.401 361.461 448.719 361.908 448.719 362.355C448.719 363.888 445.726 367.911 440.76 367.911C437.13 367.911 434.137 365.676 432.928 361.844C429.553 366.123 425.732 367.911 420.193 367.911ZM431.654 349.071C425.032 349.071 422.421 350.795 422.421 355.904C422.421 361.014 423.695 362.994 427.07 362.994C430.444 362.994 432.673 360.567 432.673 356.607V349.071H431.654Z" fill="#1D3A58"/>
<path d="M455.407 364.361V334.599H449.804V331.789C455.344 331.789 461.011 331.597 467.06 331.15V340.028C470.307 333.833 474.383 331.086 480.559 331.086C489.41 331.086 490.301 335.365 490.301 343.796V364.297H495.205V366.979H474.51V364.297H478.84V339.58C478.84 336.387 477.821 334.855 475.338 334.855C471.453 334.855 467.124 340.666 467.124 347.564V364.297H471.39V366.979H450.314V364.297H455.407V364.361Z" fill="#1D3A58"/>
<path d="M530.539 364.162V311.472H524.617V308.79H555.436C567.343 308.79 574.031 314.41 574.031 322.649C574.031 329.738 568.68 334.145 558.237 335.742V336.444C570.208 337.53 576.26 342.447 576.26 350.942C576.26 360.714 568.107 366.972 554.863 366.972H524.617V364.098H530.539V364.162ZM549.578 335.039C557.983 335.039 559.447 332.676 559.447 323.224C559.447 312.622 558.62 311.472 549.068 311.472H544.293V335.039H549.578ZM551.679 364.162C559.766 364.162 560.912 361.671 560.912 350.814C560.912 339.957 558.938 337.53 550.469 337.53H544.293V364.162H551.679Z" fill="#1D3A58"/>
<path d="M589.185 367.911C583.391 367.911 580.274 364.718 580.274 359.162C580.274 351.881 587.913 346.708 601.667 346.708V338.213C601.667 334.51 600.647 333.36 595.999 333.36C593.134 333.36 591.672 334.062 591.672 335.404C591.672 336.298 593.197 337.575 593.197 340.066C593.197 343.451 591.162 345.367 587.529 345.367C584.286 345.367 582.503 343.387 582.503 339.874C582.503 334.318 588.039 330.997 598.228 330.997C603.002 330.997 606.572 331.827 608.67 332.977C611.982 334.765 612.171 337 612.171 341.152V359.226C612.171 361.269 612.939 362.291 614.785 362.291C615.868 362.291 616.315 361.461 616.888 361.461C617.392 361.461 617.713 361.908 617.713 362.355C617.713 363.888 614.722 367.911 609.753 367.911C606.125 367.911 603.134 365.676 601.919 361.844C598.549 366.123 594.727 367.911 589.185 367.911ZM600.647 349.071C594.028 349.071 591.415 350.795 591.415 355.904C591.415 361.014 592.687 362.994 596.062 362.994C599.438 362.994 601.667 360.567 601.667 356.607V349.071H600.647Z" fill="#1D3A58"/>
<path d="M624.841 364.361V334.599H619.242V331.789C624.778 331.789 630.445 331.597 636.497 331.15V340.028C639.741 333.833 643.821 331.086 649.993 331.086C658.847 331.086 659.735 335.365 659.735 343.796V364.297H664.641V366.979H643.947V364.297H648.274V339.58C648.274 336.387 647.259 334.855 644.772 334.855C640.887 334.855 636.56 340.666 636.56 347.564V364.297H640.824V366.979H619.752V364.297H624.841V364.361Z" fill="#1D3A58"/>
<path d="M671.581 364.365V311.483H667.444V308.801C672.028 308.609 677.186 308.29 683.169 307.715V364.365H688.516V367.047H667.444V364.365H671.581ZM698.321 334.731H690.367V332.048H708.132V334.731H701.828L693.1 342.331L709.405 364.365H712.906V367.047H691.444V364.365H695.714L683.679 347.76L698.453 334.667L698.321 334.731Z" fill="#1D3A58"/>
<path d="M3.31112 415.066H0V413.406H3.31112V412.256C3.31112 404.081 8.15042 398.333 14.1996 398.333C17.9564 398.333 20.3124 400.313 20.3124 403.059C20.3124 405.295 19.1025 406.572 17.0013 406.572C15.1547 406.572 13.8812 405.295 13.8812 403.506C13.8812 401.846 15.2184 401.271 15.2184 400.632C15.2184 400.249 14.6453 399.866 13.6902 399.866C11.5889 399.866 10.3154 401.654 10.3154 405.039C10.3154 407.53 10.4427 409.638 10.4427 411.298V413.406H14.9637V415.066H10.4427V433.268H14.0722V434.929H0.254698V433.268H3.31112V415.066Z" fill="#1D3A58"/>
<path d="M30.7533 412.705C38.0759 412.705 42.9789 417.495 42.9789 424.073C42.9789 430.651 38.0759 435.505 30.7533 435.505C23.4307 435.505 18.5913 430.715 18.5913 424.137C18.5913 417.559 23.4307 412.705 30.7533 412.705ZM26.6781 424.073V426.308C26.6781 431.865 26.9328 434.228 30.817 434.228C34.7012 434.228 34.8922 431.737 34.8922 424.968V421.774C34.8922 416.409 34.5738 414.11 30.817 414.11C26.8691 414.11 26.6781 416.856 26.6781 424.137V424.073Z" fill="#1D3A58"/>
<path d="M46.5476 433.251H49.3493V415.049H46.5476V413.388C49.8587 413.261 53.1061 413.069 56.4171 412.749V418.625C57.8183 414.857 60.2378 412.814 62.7846 412.814C65.3319 412.814 67.3056 414.729 67.3056 417.284C67.3056 419.519 65.7778 421.244 63.6127 421.244C61.7662 421.244 60.2378 419.647 60.2378 417.54C60.2378 416.518 60.8745 416.07 60.8745 415.496C60.8745 415.304 60.7473 415.176 60.4287 415.176C59.2189 415.176 56.4808 419.009 56.4808 423.479V433.251H60.2378V434.912H46.4839V433.251H46.5476Z" fill="#1D3A58"/>
<path d="M89.4637 433.154V400.71H85.5158V399.049H104.491C112.45 399.049 116.59 401.924 116.59 406.905C116.59 411.886 112.642 415.208 105.319 415.591V416.038C112.96 417.124 115.444 420.764 115.444 428.875C115.444 431.749 115.698 433.154 117.608 433.154C118.245 433.154 119.009 432.962 119.9 432.643L120.41 434.112C117.927 435.262 115.889 435.773 114.488 435.773C111.559 435.773 109.203 434.751 107.93 433.218C105.701 430.6 105.828 427.151 105.701 423.191C105.51 418.337 103.791 416.549 98.9516 416.549H98.0598V433.218H102.517V435.006H85.4521V433.218H89.4001L89.4637 433.154ZM102.39 414.697C106.656 414.697 107.357 412.972 107.357 407.927C107.357 401.604 107.229 400.646 102.39 400.646H98.1234V414.697H102.39Z" fill="#1D3A58"/>
<path d="M144.225 428.078C142.506 433.123 139.195 435.55 133.91 435.55C126.587 435.55 122.002 431.079 122.002 424.373C122.002 417.668 126.906 412.749 133.783 412.749C140.086 412.749 143.907 416.646 143.907 422.969V423.224H130.217V428.652C130.217 432.548 131.044 434.209 134.419 434.209C138.622 434.209 141.487 431.973 143.015 427.694L144.225 428.142V428.078ZM137.157 421.563V417.348C137.157 415.049 136.139 414.027 133.719 414.027C131.299 414.027 130.281 415.113 130.281 417.348V421.563H137.157Z" fill="#1D3A58"/>
<path d="M168.993 428.078C167.401 432.995 164.218 435.486 159.697 435.486C153.011 435.486 148.172 430.441 148.172 424.054C148.172 417.668 153.33 412.749 160.206 412.749C165.046 412.749 168.166 415.368 168.166 418.817C168.166 420.861 166.765 422.33 164.791 422.33C162.562 422.33 161.225 420.861 161.225 418.625C161.225 416.518 162.817 415.879 162.817 415.241C162.817 414.346 161.926 413.963 160.143 413.963C156.259 413.963 156.131 416.071 156.131 420.669V427.311C156.131 431.91 156.577 433.89 160.27 433.89C163.963 433.89 166.447 431.718 167.784 427.566L168.993 428.014V428.078Z" fill="#1D3A58"/>
<path d="M184.914 412.705C192.236 412.705 197.139 417.495 197.139 424.073C197.139 430.651 192.236 435.505 184.914 435.505C177.591 435.505 172.751 430.715 172.751 424.137C172.751 417.559 177.591 412.705 184.914 412.705ZM180.838 424.073V426.308C180.838 431.865 181.093 434.228 184.977 434.228C188.861 434.228 189.053 431.737 189.053 424.968V421.774C189.053 416.409 188.734 414.11 184.977 414.11C181.03 414.11 180.838 416.856 180.838 424.137V424.073Z" fill="#1D3A58"/>
<path d="M203.254 433.277V414.947H199.816V413.222C203.191 413.222 206.693 413.094 210.45 412.839V418.332C212.424 414.5 214.97 412.839 218.791 412.839C224.204 412.839 224.777 415.458 224.777 420.695V433.34H227.833V435.001H215.098V433.34H217.772V418.076C217.772 416.096 217.135 415.139 215.608 415.139C213.188 415.139 210.514 418.715 210.514 422.994V433.34H213.124V435.001H200.135V433.34H203.254V433.277Z" fill="#1D3A58"/>
<path d="M230.883 426.928H232.221C233.431 431.654 235.978 434.081 239.671 434.081C242.727 434.081 244.637 432.229 244.637 430.185C244.637 427.631 242.281 427.886 238.079 427.184C233.176 426.417 230.82 424.82 230.82 420.477C230.82 415.688 233.749 412.749 238.206 412.749C240.053 412.749 241.772 413.261 243.173 414.027L244.256 413.005H245.275L245.402 419.136H244.064C243.046 415.751 241.008 414.027 238.206 414.027C235.404 414.027 233.431 415.496 233.431 417.029C233.431 419.009 235.596 419.072 239.989 419.647C245.275 420.35 247.439 422.266 247.439 427.184C247.439 432.101 244.51 435.486 239.48 435.486C236.996 435.486 235.023 434.847 233.558 433.634L232.094 434.847H230.82V426.864L230.883 426.928Z" fill="#1D3A58"/>
<path d="M253.11 415.002H250.117V413.341H253.11V406.635C254.128 406.763 255.084 406.827 256.166 406.827C257.503 406.827 258.776 406.699 260.114 406.571V413.341H264.316V415.002H260.114V430.01C260.114 431.862 260.496 432.437 261.77 432.437C263.043 432.437 263.934 431.224 264.126 429.307H265.526C265.335 433.076 262.47 435.503 258.268 435.503C253.747 435.503 253.11 433.906 253.11 430.01V415.002Z" fill="#1D3A58"/>
<path d="M267.754 433.251H270.555V415.049H267.754V413.388C271.065 413.261 274.312 413.069 277.623 412.749V418.625C279.024 414.857 281.444 412.814 283.991 412.814C286.538 412.814 288.512 414.729 288.512 417.284C288.512 419.519 286.983 421.244 284.819 421.244C282.972 421.244 281.444 419.647 281.444 417.54C281.444 416.518 282.08 416.07 282.08 415.496C282.08 415.304 281.953 415.176 281.635 415.176C280.425 415.176 277.687 419.009 277.687 423.479V433.251H281.444V434.912H267.69V433.251H267.754Z" fill="#1D3A58"/>
<path d="M314.875 433.199H318.249V434.86C314.747 434.86 311.309 435.051 307.743 435.307V429.815C305.705 433.71 303.222 435.435 299.402 435.435C297.046 435.435 295.263 434.732 294.244 433.327C293.48 432.305 293.416 430.964 293.416 429.112V414.87H290.042V413.209C293.862 413.209 297.364 413.018 300.484 412.634V430.006C300.484 431.986 301.121 432.944 302.649 432.944C305.132 432.944 307.743 429.303 307.743 425.025V414.806H304.05V413.145C307.68 413.145 311.245 412.954 315.002 412.571V433.072L314.875 433.199Z" fill="#1D3A58"/>
<path d="M341.683 428.078C340.091 432.995 336.908 435.486 332.387 435.486C325.701 435.486 320.862 430.441 320.862 424.054C320.862 417.668 326.019 412.749 332.896 412.749C337.735 412.749 340.856 415.368 340.856 418.817C340.856 420.861 339.455 422.33 337.481 422.33C335.252 422.33 333.915 420.861 333.915 418.625C333.915 416.518 335.507 415.879 335.507 415.241C335.507 414.346 334.616 413.963 332.833 413.963C328.949 413.963 328.821 416.071 328.821 420.669V427.311C328.821 431.91 329.267 433.89 332.96 433.89C336.653 433.89 339.137 431.718 340.474 427.566L341.683 428.014V428.078Z" fill="#1D3A58"/>
<path d="M347.796 415.002H344.803V413.341H347.796V406.635C348.815 406.763 349.77 406.827 350.853 406.827C352.19 406.827 353.464 406.699 354.801 406.571V413.341H359.003V415.002H354.801V430.01C354.801 431.862 355.183 432.437 356.456 432.437C357.73 432.437 358.621 431.224 358.812 429.307H360.213C360.022 433.076 357.156 435.503 352.954 435.503C348.433 435.503 347.796 433.906 347.796 430.01V415.002Z" fill="#1D3A58"/>
<path d="M362.118 433.251H365.174V415.05H361.799V413.389C365.556 413.261 369.122 413.07 372.433 412.751V433.315H375.68V434.976H362.118V433.315V433.251ZM368.676 400.169C370.65 400.169 372.306 401.893 372.306 404.064C372.306 406.236 370.714 407.96 368.676 407.96C366.638 407.96 365.047 406.172 365.047 404.064C365.047 401.957 366.703 400.169 368.676 400.169Z" fill="#1D3A58"/>
<path d="M390.013 412.705C397.335 412.705 402.238 417.495 402.238 424.073C402.238 430.651 397.335 435.505 390.013 435.505C382.69 435.505 377.85 430.715 377.85 424.137C377.85 417.559 382.69 412.705 390.013 412.705ZM385.937 424.073V426.308C385.937 431.865 386.192 434.228 390.076 434.228C393.96 434.228 394.151 431.737 394.151 424.968V421.774C394.151 416.409 393.833 414.11 390.076 414.11C386.128 414.11 385.937 416.856 385.937 424.137V424.073Z" fill="#1D3A58"/>
<path d="M407.906 433.277V414.947H404.467V413.222C407.842 413.222 411.344 413.094 415.101 412.839V418.332C417.075 414.5 419.622 412.839 423.442 412.839C428.855 412.839 429.428 415.458 429.428 420.695V433.34H432.484V435.001H419.749V433.34H422.423V418.076C422.423 416.096 421.787 415.139 420.258 415.139C417.839 415.139 415.164 418.715 415.164 422.994V433.34H417.775V435.001H404.785V433.34H407.906V433.277Z" fill="#1D3A58"/>
<path d="M456.17 435.505C452.604 435.505 450.694 433.525 450.694 430.076C450.694 425.606 455.406 422.413 463.875 422.413V417.175C463.875 414.94 463.238 414.174 460.373 414.174C458.59 414.174 457.699 414.621 457.699 415.451C457.699 416.026 458.653 416.793 458.653 418.325C458.653 420.433 457.38 421.582 455.151 421.582C453.178 421.582 452.095 420.369 452.095 418.197C452.095 414.748 455.47 412.705 461.774 412.705C464.703 412.705 466.868 413.216 468.205 413.919C470.242 415.004 470.37 416.409 470.37 418.964V430.141C470.37 431.417 470.815 431.992 471.961 431.992C472.662 431.992 472.917 431.482 473.299 431.482C473.617 431.482 473.808 431.737 473.808 432.056C473.808 433.015 471.961 435.505 468.905 435.505C466.676 435.505 464.83 434.1 464.13 431.737C462.028 434.356 459.672 435.505 456.297 435.505H456.17ZM463.238 423.881C459.163 423.881 457.507 424.903 457.507 428.096C457.507 431.29 458.272 432.44 460.373 432.44C462.347 432.44 463.811 430.97 463.811 428.544V423.881H463.174H463.238Z" fill="#1D3A58"/>
<path d="M478.135 433.277V414.947H474.697V413.222C478.071 413.222 481.573 413.094 485.33 412.839V418.332C487.304 414.5 489.851 412.839 493.672 412.839C499.084 412.839 499.657 415.458 499.657 420.695V433.34H502.713V435.001H489.978V433.34H492.653V418.076C492.653 416.096 492.016 415.139 490.488 415.139C488.068 415.139 485.394 418.715 485.394 422.994V433.34H488.005V435.001H475.015V433.34H478.135V433.277Z" fill="#1D3A58"/>
<path d="M521.372 431.46C519.78 434.207 517.551 435.548 514.622 435.548C509.21 435.548 505.007 430.631 505.007 424.18C505.007 417.73 509.146 412.684 514.622 412.684C517.551 412.684 519.78 414.089 521.372 416.835V400.677H517.361V399.017C521.69 398.889 525.384 398.697 528.44 398.378V433.249H531.242V434.909H521.372V431.46ZM521.372 422.072C521.372 417.218 518.953 414.281 515.578 414.281C513.413 414.281 513.03 415.494 513.03 418.304V429.8C513.03 432.674 513.476 434.015 515.578 434.015C518.953 434.015 521.372 431.078 521.372 426.224V422.072Z" fill="#1D3A58"/>
<path d="M553.718 433.154V400.71H549.58V399.049H566.963C571.483 399.049 574.984 399.816 578.171 402.243C582.308 405.372 584.858 410.865 584.858 416.996C584.858 423.127 582.245 428.62 577.981 431.877C575.116 434.048 571.42 434.942 566.708 434.942H549.516V433.154H553.655H553.718ZM566.645 433.154C569.701 433.154 571.678 432.962 573.139 431.047C574.921 428.748 575.242 424.788 575.242 419.04V416.485C575.242 410.61 575.116 406.458 573.838 403.903C572.377 401.029 570.274 400.646 566.708 400.646H562.442V433.09H566.708L566.645 433.154Z" fill="#1D3A58"/>
<path d="M610.714 428.078C608.994 433.123 605.682 435.55 600.398 435.55C593.074 435.55 588.49 431.079 588.49 424.373C588.49 417.668 593.395 412.749 600.335 412.749C606.576 412.749 610.456 416.646 610.456 422.969V423.224H596.765V428.652C596.765 432.548 597.596 434.209 600.971 434.209C605.172 434.209 608.037 431.973 609.567 427.694L610.777 428.142L610.714 428.078ZM603.642 421.563V417.348C603.642 415.049 602.628 414.027 600.203 414.027C597.785 414.027 596.765 415.113 596.765 417.348V421.563H603.642Z" fill="#1D3A58"/>
<path d="M614.336 415.056H612.107V413.395H624.652V415.056H622.038L627.133 427.127L631.271 417.1C631.465 416.781 631.592 416.461 631.592 415.887C631.592 415.312 631.145 414.993 630.193 414.993H627.964V413.332H636.365V414.993H634.967C634.136 414.993 633.632 415.312 633.122 416.525L625.225 435.621H623.821L614.336 414.993V415.056Z" fill="#1D3A58"/>
<path d="M659.738 428.078C658.019 433.123 654.706 435.55 649.423 435.55C642.099 435.55 637.514 431.079 637.514 424.373C637.514 417.668 642.42 412.749 649.36 412.749C655.663 412.749 659.486 416.646 659.486 422.969V423.224H645.795V428.652C645.795 432.548 646.62 434.209 649.996 434.209C654.196 434.209 657.062 431.973 658.592 427.694L659.801 428.142L659.738 428.078ZM652.672 421.563V417.348C652.672 415.049 651.652 414.027 649.234 414.027C646.815 414.027 645.795 415.113 645.795 417.348V421.563H652.672Z" fill="#1D3A58"/>
<path d="M664.769 433.249V400.677H661.394V399.017C665.153 398.889 668.718 398.697 672.03 398.378V433.249H675.337V434.909H661.778V433.249H664.832H664.769Z" fill="#1D3A58"/>
<path d="M689.919 412.705C697.243 412.705 702.143 417.495 702.143 424.073C702.143 430.651 697.243 435.505 689.919 435.505C682.595 435.505 677.758 430.715 677.758 424.137C677.758 417.559 682.595 412.705 689.919 412.705ZM685.844 424.073V426.308C685.844 431.865 686.097 434.228 689.982 434.228C693.868 434.228 694.057 431.737 694.057 424.968V421.774C694.057 416.409 693.736 414.11 689.982 414.11C686.034 414.11 685.844 416.856 685.844 424.137V424.073Z" fill="#1D3A58"/>
<path d="M704.946 445.34H707.874V415.004H704.499V413.344C708.258 413.216 711.822 413.024 715.135 412.705V416.856C716.728 414.11 718.889 412.705 721.823 412.705C727.296 412.705 731.433 417.495 731.433 424.201C731.433 430.907 727.233 435.569 721.823 435.569C718.889 435.569 716.728 434.228 715.135 431.482V445.34H718.889V447.001H705.009V445.34H704.946ZM723.473 418.517C723.473 415.643 723.221 414.301 720.866 414.301C717.49 414.301 715.135 417.24 715.135 422.094V426.244C715.135 431.098 717.49 434.036 720.866 434.036C723.095 434.036 723.473 432.631 723.473 429.885V418.517Z" fill="#1D3A58"/>
<path d="M737.358 433.257V414.991H734.109V413.331C737.295 413.331 740.671 413.14 744.361 412.884V418.377C746.27 414.544 748.82 412.884 752.51 412.884C756.207 412.884 758.367 414.736 758.499 418.249C760.407 414.544 762.952 412.884 766.711 412.884C769.067 412.884 770.723 413.523 771.806 414.928C772.568 415.95 772.694 417.227 772.694 418.824V433.321H775.88V434.982H762.889V433.321H765.628V418.121C765.628 416.141 764.992 415.247 763.462 415.247C761.043 415.247 758.367 418.696 758.367 423.039V433.321H760.917V434.982H748.82V433.321H751.49V418.121C751.49 416.141 750.854 415.247 749.33 415.247C746.906 415.247 744.361 418.76 744.361 423.039V433.321H746.906V434.982H734.493V433.321H737.295L737.358 433.257Z" fill="#1D3A58"/>
<path d="M800.338 428.078C798.618 433.123 795.306 435.55 790.022 435.55C782.698 435.55 778.114 431.079 778.114 424.373C778.114 417.668 783.014 412.749 789.954 412.749C796.257 412.749 800.08 416.646 800.08 422.969V423.224H786.389V428.652C786.389 432.548 787.22 434.209 790.595 434.209C794.796 434.209 797.661 431.973 799.192 427.694L800.401 428.142L800.338 428.078ZM793.266 421.563V417.348C793.266 415.049 792.252 414.027 789.827 414.027C787.409 414.027 786.389 415.113 786.389 417.348V421.563H793.266Z" fill="#1D3A58"/>
<path d="M806.507 433.277V414.947H803.069V413.222C806.444 413.222 809.946 413.094 813.705 412.839V418.332C815.677 414.5 818.227 412.839 822.043 412.839C827.459 412.839 828.032 415.458 828.032 420.695V433.34H831.087V435.001H818.353V433.34H821.029V418.076C821.029 416.096 820.393 415.139 818.863 415.139C816.445 415.139 813.768 418.715 813.768 422.994V433.34H816.381V435.001H803.39V433.34H806.507V433.277Z" fill="#1D3A58"/>
<path d="M835.732 415.002H832.741V413.341H835.732V406.635C836.752 406.763 837.709 406.827 838.792 406.827C840.128 406.827 841.4 406.699 842.735 406.571V413.341H846.942V415.002H842.735V430.01C842.735 431.862 843.119 432.437 844.391 432.437C845.669 432.437 846.558 431.224 846.747 429.307H848.151C847.962 433.076 845.096 435.503 840.89 435.503C836.368 435.503 835.732 433.906 835.732 430.01V415.002Z" fill="#1D3A58"/>
<path d="M488.769 24.524C468.903 14.4969 441.586 10.665 419.873 19.8617C374.855 39.5325 358.936 88.5816 358.49 134.246C359.318 160.112 366.195 183.551 379.185 204.116C387.59 197.538 391.41 188.021 395.485 179.208C401.598 163.752 404.909 147.275 404.591 129.392C405.992 95.607 418.727 58.373 452.092 43.8754C477.754 34.2955 503.606 45.4721 521.117 65.7176C542.321 91.3278 550.98 128.051 541.684 161.134C535.953 186.297 517.105 215.42 490.361 222.318C477.371 226.022 462.153 223.914 450.756 217.592C444.006 228.321 435.219 238.668 424.903 246.204V246.459C444.388 255.337 470.367 253.74 488.961 243.394C454.576 269.195 400.771 276.157 360.019 259.041C349.894 254.89 340.024 249.652 330.919 243.075C352.25 255.145 385.616 258.466 408.029 244.735C444.515 222.829 459.288 182.785 461.517 142.996C462.981 113.426 455.276 86.6658 441.013 63.5462C432.29 70.5079 428.215 80.4067 424.203 89.7312C417.581 106.337 415.161 124.475 415.416 143.634C412.869 174.993 399.815 209.162 369.379 223.276C347.156 232.855 322.195 224.361 305.194 207.692C277.24 180.358 268.581 134.949 281.634 97.9062C288.129 75.7447 306.595 50.9007 330.219 45.2805C342.762 41.5124 358.044 43.8115 369.315 49.9427C375.873 39.4687 385.042 29.1223 395.294 21.9693V21.7138C376.765 13.2196 350.276 14.4331 332.192 24.0769C363.902 1.1489 411.914 -6.77051 450.946 6.00274C464.191 10.4095 476.99 16.0936 488.706 24.3962L488.769 24.524Z" fill="#1D3A58"/>
</g>
</svg>
