<svg width="270" height="269" viewBox="0 0 270 269" fill="none" xmlns="http://www.w3.org/2000/svg">
<path d="M213.088 24.5239C193.222 14.4968 165.905 10.6649 144.192 19.8616C99.1738 39.5324 83.2548 88.5816 82.8088 134.246C83.6368 160.112 90.5138 183.551 103.504 204.116C111.909 197.538 115.729 188.021 119.804 179.208C125.917 163.752 129.228 147.275 128.91 129.392C130.311 95.607 143.046 58.373 176.411 43.8754C202.073 34.2955 227.925 45.472 245.436 65.7175C266.64 91.3277 275.299 128.051 266.003 161.134C260.272 186.297 241.424 215.42 214.68 222.318C201.69 226.022 186.472 223.914 175.075 217.592C168.325 228.321 159.538 238.668 149.222 246.204V246.459C168.707 255.337 194.686 253.74 213.28 243.394C178.895 269.195 125.09 276.157 84.3378 259.041C74.2128 254.89 64.3428 249.652 55.2378 243.075C76.5688 255.145 109.935 258.466 132.348 244.735C168.834 222.829 183.607 182.785 185.836 142.996C187.3 113.426 179.595 86.6658 165.332 63.5462C156.609 70.5079 152.534 80.4066 148.522 89.7311C141.9 106.337 139.48 124.475 139.735 143.634C137.188 174.993 124.134 209.162 93.6978 223.276C71.4748 232.855 46.5138 224.361 29.5128 207.692C1.55883 180.358 -7.10016 134.949 5.95284 97.9061C12.4478 75.7446 30.9138 50.9006 54.5378 45.2804C67.0808 41.5123 82.3628 43.8115 93.6338 49.9426C100.192 39.4686 109.361 29.1222 119.613 21.9692V21.7137C101.084 13.2195 74.5948 14.433 56.5108 24.0768C88.2208 1.14885 136.233 -6.77056 175.265 6.00269C188.51 10.4094 201.309 16.0935 213.025 24.3961L213.088 24.5239Z" fill="#1D3A58"/>
</svg>
