<?xml version="1.0" encoding="UTF-8" standalone="no"?>
<!-- Created with Inkscape (http://www.inkscape.org/) -->

<svg
   xmlns:dc="http://purl.org/dc/elements/1.1/"
   xmlns:cc="http://creativecommons.org/ns#"
   xmlns:rdf="http://www.w3.org/1999/02/22-rdf-syntax-ns#"
   xmlns:svg="http://www.w3.org/2000/svg"
   xmlns="http://www.w3.org/2000/svg"
   xmlns:sodipodi="http://sodipodi.sourceforge.net/DTD/sodipodi-0.dtd"
   xmlns:inkscape="http://www.inkscape.org/namespaces/inkscape"
   width="186.38629"
   height="43.215469"
   viewBox="0 0 49.314704 11.434093"
   version="1.1"
   id="svg15417"
   inkscape:version="0.92.0 r15299"
   sodipodi:docname="macmillan support.svg">
  <defs
     id="defs15411">
    <clipPath
       id="clipPath15070"
       clipPathUnits="userSpaceOnUse">
      <path
         inkscape:connector-curvature="0"
         id="path15068"
         d="m 424.235,17.008 h 148.363 v 61.42 H 424.235 Z" />
    </clipPath>
  </defs>
  <sodipodi:namedview
     id="base"
     pagecolor="#ffffff"
     bordercolor="#666666"
     borderopacity="1.0"
     inkscape:pageopacity="0.0"
     inkscape:pageshadow="2"
     inkscape:zoom="4.8385462"
     inkscape:cx="92.693107"
     inkscape:cy="9.8674895"
     inkscape:document-units="mm"
     inkscape:current-layer="layer1"
     showgrid="false"
     fit-margin-top="0"
     fit-margin-left="0"
     fit-margin-right="0"
     fit-margin-bottom="0"
     units="px"
     inkscape:window-width="1280"
     inkscape:window-height="744"
     inkscape:window-x="-4"
     inkscape:window-y="-4"
     inkscape:window-maximized="1" />
  <metadata
     id="metadata15414">
    <rdf:RDF>
      <cc:Work
         rdf:about="">
        <dc:format>image/svg+xml</dc:format>
        <dc:type
           rdf:resource="http://purl.org/dc/dcmitype/StillImage" />
        <dc:title></dc:title>
      </cc:Work>
    </rdf:RDF>
  </metadata>
  <g
     inkscape:label="Layer 1"
     inkscape:groupmode="layer"
     id="layer1"
     transform="translate(-109.27852,-223.92073)">
    <g
       id="g15670"
       transform="translate(0.13229315,-0.13228887)">
      <path
         d="m 157.42481,224.58225 c -0.76659,0 -1.01282,0.32879 -1.01282,0.90346 0,0.73943 0.2734,2.38196 0.0822,2.38196 -0.71226,-1.1497 -1.45133,-3.31294 -2.49167,-3.31294 -0.65722,0 -0.98601,0.43815 -1.15005,1.01318 -0.10972,0.41063 -0.1644,2.02636 -0.1644,2.51919 0,1.31409 0.19156,1.86161 0.52035,2.026 0.0822,0.0547 0.30127,0.13688 0.60219,0.13688 0.30127,0 0.38347,-0.0547 0.43815,-0.10936 0.27376,-0.30128 0.0819,-2.46416 0.1644,-3.17606 0.16404,0.49248 0.65722,1.83444 1.20438,2.51883 0.32879,0.41063 0.71226,0.71191 1.28729,0.71191 1.04034,0 1.42381,-1.56069 1.42381,-3.55953 0,-1.80728 -0.38347,-2.05352 -0.90382,-2.05352"
         style="fill:#009b3e;fill-opacity:1;fill-rule:nonzero;stroke:none;stroke-width:0.35277778"
         id="path15074"
         inkscape:connector-curvature="0" />
      <path
         d="m 149.02073,227.83821 c 0.23142,-1.09396 0.34925,-1.5688 0.60184,-2.13677 0.10513,0.77858 0.2607,1.40052 0.387,2.07362 -0.35772,0 -0.69462,0.0212 -0.98884,0.0632 m -1.18957,2.52942 c 0.96132,0 0.83185,-0.4064 0.94263,-1.10914 0.46249,-0.0557 0.98001,-0.0924 1.47919,-0.11112 0.25894,0.79516 0.59161,1.27564 1.09079,1.27564 0.55492,0 1.12783,-0.33267 1.12783,-0.66534 0,-0.0741 -0.0367,-0.20355 -0.16616,-0.44379 -0.53622,-0.98002 -0.96167,-3.60539 -1.2573,-4.6041 -0.14781,-0.51753 -2.12654,-0.36971 -2.60702,0.0741 -0.85055,1.05375 -1.38677,3.58704 -1.53459,4.58541 0,0.57326 0.18486,0.99836 0.92463,0.99836"
         style="fill:#009b3e;fill-opacity:1;fill-rule:nonzero;stroke:none;stroke-width:0.35277778"
         id="path15078"
         inkscape:connector-curvature="0" />
      <path
         d="m 138.91446,230.32219 c 0.27728,0.21131 0.90276,0.17039 1.49401,0.17039 0.55422,0 0.90206,0.025 1.25342,-0.12876 0.59126,-0.24977 0.53587,-0.80716 0.53587,-1.07633 0,-0.40357 -0.21343,-0.56515 -0.9652,-0.55739 -0.10901,0.001 -0.57644,0.008 -0.62018,-0.008 -0.46179,-0.17321 -0.16122,-1.22555 -0.16122,-3.4551 0,-0.48049 -0.3623,-0.80751 -1.2125,-0.80751 -0.35101,0 -0.64664,0.0579 -0.73907,0.26917 -0.11077,0.24977 -0.0924,1.01882 -0.11077,2.03729 -0.0557,2.63349 0.0822,3.20993 0.52564,3.556"
         style="fill:#009b3e;fill-opacity:1;fill-rule:nonzero;stroke:none;stroke-width:0.35277778"
         id="path15082"
         inkscape:connector-curvature="0" />
      <path
         d="m 144.60141,224.90959 c -0.0878,-0.31609 -0.23248,-0.35983 -0.45261,-0.44662 -0.40605,-0.09 -1.07845,-0.0445 -1.17475,0.26212 -0.26388,0.40534 -0.20814,4.89056 -0.15452,5.39115 0.0183,0.29951 -0.0257,0.41416 1.90923,0.41416 0.90276,0 1.62102,-0.30798 1.76142,-1.0287 0.17604,-0.90594 -0.048,-0.99484 -0.45261,-0.99484 h -1.17158 c 0,-0.62441 -0.14217,-3.14818 -0.26458,-3.59727"
         style="fill:#009b3e;fill-opacity:1;fill-rule:nonzero;stroke:none;stroke-width:0.35277778"
         id="path15086"
         inkscape:connector-curvature="0" />
      <path
         d="m 136.63368,224.65877 c -0.84984,0 -1.01635,0.39864 -1.01635,0.81633 0,0.30374 -0.0617,0.94262 -0.0617,2.38795 0,0.57785 0.0201,1.10173 0.0201,1.40899 0,0.92146 0.26388,1.19239 0.36512,1.24637 0.16228,0.1083 0.42581,0.14464 0.7299,0.14464 0.81068,0 1.03399,-0.0723 1.11478,-0.74084 0.0406,-0.28892 -0.043,-2.83315 -0.26494,-4.7318 -0.0554,-0.47484 -0.35101,-0.53164 -0.88688,-0.53164"
         style="fill:#009b3e;fill-opacity:1;fill-rule:nonzero;stroke:none;stroke-width:0.35277778"
         id="path15090"
         inkscape:connector-curvature="0" />
      <path
         d="m 127.91809,228.68121 c 0,-1.84785 0.35101,-4.15749 1.88489,-4.15749 0.6283,0 1.20086,0.44345 1.4411,1.12713 0.35101,-0.77611 0.92392,-1.25624 1.66299,-1.25624 0.77611,0 1.40441,0.48013 1.75543,1.47814 0.25858,0.75741 0.46178,2.34632 0.35101,3.58457 -0.0554,0.57291 -0.46179,1.14547 -1.05304,1.14547 -0.60996,0 -0.66534,-0.97931 -0.75777,-1.95862 -0.0737,-0.8315 -0.0924,-1.29328 -0.16616,-1.68134 -0.38805,0 -0.48048,0.6096 -0.55421,1.05304 -0.11113,0.73942 -0.35137,1.44145 -1.03505,1.44145 -0.70203,0 -1.016,-0.79445 -0.96062,-2.08809 -0.0741,-0.18486 -0.16651,-0.25859 -0.33266,-0.25859 -0.60996,0 -0.44345,2.08809 -0.60996,2.90089 -0.11077,0.57292 -0.48048,0.6283 -0.75741,0.6283 -0.0741,0 -0.31433,0 -0.44344,-0.0741 -0.14782,-0.0737 -0.4251,-0.24024 -0.4251,-1.88454"
         style="fill:#009b3e;fill-opacity:1;fill-rule:nonzero;stroke:none;stroke-width:0.35277778"
         id="path15094"
         inkscape:connector-curvature="0" />
      <path
         d="m 110.53511,230.6163 c 0.66499,0 0.97931,-0.38806 0.97931,-1.01635 0,-0.36936 -0.16616,-1.62596 -0.16616,-2.18017 0,-0.68368 0.12912,-1.14582 0.51717,-1.14582 -0.11077,0.92392 0.12947,2.77177 1.2379,2.77177 1.29364,0 0.60995,-2.06939 1.38607,-2.06939 0.27693,0 0.31397,0.23989 0.31397,1.25624 v 1.2379 c 0,0.73942 0.14781,1.05339 0.77611,1.05339 0.72072,0 0.88688,-0.0924 0.96097,-0.36971 0.18485,-0.70203 0.25858,-1.40441 0.25858,-2.43875 0,-1.95862 -0.35101,-3.19687 -1.73708,-3.19687 -0.75741,0 -1.34867,0.42509 -1.77376,0.86854 -0.33267,-0.8315 -0.8315,-1.20086 -1.51518,-1.20086 -1.58891,0 -2.49449,2.06939 -2.49449,4.0834 0,2.01401 0.90558,2.34668 1.25659,2.34668"
         style="fill:#009b3e;fill-opacity:1;fill-rule:nonzero;stroke:none;stroke-width:0.35277778"
         id="path15098"
         inkscape:connector-curvature="0" />
      <path
         d="m 150.44613,232.7602 c -0.15628,0.0557 -0.41628,0.0773 -0.66075,0.0607 -0.0145,-0.1337 -0.002,-0.31574 0.0138,-0.53058 0.0198,-0.28857 0.47519,-0.3242 0.73307,-0.19403 0.13829,0.0699 0.21907,0.19227 0.20919,0.33408 -0.0109,0.15805 -0.11888,0.26741 -0.29527,0.32985 m 1.61361,1.96603 c -0.42863,-0.45191 -0.82621,-0.91934 -1.10667,-1.23896 0.0141,-0.002 0.0586,-0.003 0.121,-0.0123 0.27235,-0.0399 0.89147,-0.2286 0.89147,-1.25236 0,-0.60996 -0.4646,-1.07456 -1.41358,-1.10349 -0.75494,-0.0194 -1.42275,0.17392 -1.73249,0.629 -0.29069,0.4258 -0.30974,1.32609 -0.30974,1.89724 0,1.04563 0.4064,1.61678 0.91969,1.61678 0.2032,0 0.3482,-0.097 0.3482,-0.25188 v -1.62631 c 0.0293,0.12594 0.71649,1.55857 1.2199,1.73285 0.94862,0.32914 1.25589,-0.22578 1.06222,-0.39053"
         style="fill:#009b3e;fill-opacity:1;fill-rule:nonzero;stroke:none;stroke-width:0.35277778"
         id="path15102"
         inkscape:connector-curvature="0" />
      <path
         d="m 120.55901,231.25681 c -0.46743,0 -0.71826,0.22895 -0.7299,0.69885 -0.0113,0.54222 0.0342,1.15641 0.0116,1.55399 -0.21695,-0.27693 -0.52458,-0.74683 -0.8897,-1.44568 -0.27376,-0.53023 -0.5588,-0.57821 -0.69568,-0.57821 -0.85513,0 -0.82091,2.27683 -0.82091,2.83104 0,0.75918 0.22789,1.02412 0.59302,1.02412 0.22789,0 0.3877,-0.036 0.49036,-0.0843 0.091,-0.036 0.091,-0.0603 0.091,-0.18062 l 0.0229,-1.54199 c 0.47907,0.84314 1.04916,1.67464 1.59667,1.67464 0.3877,0 0.85513,-0.53023 0.85513,-2.08457 0,-1.69862 -0.25082,-1.86725 -0.52458,-1.86725"
         style="fill:#009b3e;fill-opacity:1;fill-rule:nonzero;stroke:none;stroke-width:0.35277778"
         id="path15106"
         inkscape:connector-curvature="0" />
      <path
         d="m 113.35109,234.73692 c -0.15487,0.3683 -0.62018,0.49424 -1.08514,0.49424 -1.26965,0 -2.14172,-0.67839 -2.14172,-2.03482 0,-0.81421 0.42651,-1.64747 1.37619,-1.93816 0.69744,-0.21308 1.36631,-0.0871 1.59879,0.13582 0.25188,0.242 0.25188,0.77505 -0.10654,0.84278 -0.97896,0 -1.49225,0.16475 -1.49225,0.98849 0,1.16275 1.41464,0.74612 1.85067,0.82373 0.055,0.009 0.14534,0.3295 0,0.68792"
         style="fill:#009b3e;fill-opacity:1;fill-rule:nonzero;stroke:none;stroke-width:0.35277778"
         id="path15110"
         inkscape:connector-curvature="0" />
      <path
         d="m 124.29676,234.66012 c 0,0.4318 -0.31009,0.61983 -0.75565,0.61983 -1.23084,0 -2.20945,-0.64805 -2.20945,-1.97203 0,-0.37571 0.20356,-1.28658 0.97861,-1.69051 0.64946,-0.33796 1.33738,-0.29104 1.53105,-0.29104 0.3101,0 0.40711,0.13159 0.40711,0.29104 0,0.22543 -0.0801,0.76377 -0.74859,0.76377 -0.56233,0 -0.97332,0.19932 -0.84067,1.23648 0.0469,0.36619 0.27128,0.62936 0.70732,0.62936 0.65898,0 0.93027,0.18768 0.93027,0.4131"
         style="fill:#009b3e;fill-opacity:1;fill-rule:nonzero;stroke:none;stroke-width:0.35277778"
         id="path15114"
         inkscape:connector-curvature="0" />
      <path
         d="m 146.4059,234.15939 c 0.54046,0 0.71191,-0.51435 0.71191,-0.89182 0,-0.55739 -0.0857,-1.18322 -0.6604,-1.18322 -0.52282,0.0173 -0.7546,0.36019 -0.7546,1.06327 0,0.266 0.0515,1.01177 0.70309,1.01177 m 1.78259,-0.80504 c 0,1.35678 -1.01742,1.98649 -1.87008,1.98649 -1.27917,0 -1.60867,-1.20156 -1.60867,-2.16076 0,-1.55046 0.62971,-2.14171 1.83127,-2.14171 1.23085,0 1.64748,1.22131 1.64748,2.31598"
         style="fill:#009b3e;fill-opacity:1;fill-rule:nonzero;stroke:none;stroke-width:0.35277778"
         id="path15118"
         inkscape:connector-curvature="0" />
      <path
         d="m 152.91536,231.23896 c 0.78387,0 2.19886,0 2.54282,0.19121 0.17216,0.0956 0.15311,0.42051 0.15311,0.59266 0,0.49707 -0.61207,0.38241 -0.89888,0.45897 -0.22931,0.0572 -0.24836,0.0956 -0.26741,0.2868 -0.0575,0.64982 0,1.33844 0,1.81646 0,0.43956 -0.0959,0.57326 -0.2487,0.63076 -0.0575,0.019 -0.13371,0.0385 -0.24836,0.0385 -0.30621,0 -0.53552,-0.13406 -0.63112,-0.36336 -0.1912,-0.47802 -0.17215,-1.85456 -0.0765,-2.35197 -0.72672,-0.0956 -0.93698,-0.19086 -0.93698,-0.66922 0,-0.0956 0,-0.42051 0.0765,-0.53517 0.0766,-0.11465 0.26776,-0.0956 0.53552,-0.0956"
         style="fill:#009b3e;fill-opacity:1;fill-rule:nonzero;stroke:none;stroke-width:0.35277778"
         id="path15122"
         inkscape:connector-curvature="0" />
      <path
         d="m 142.73511,233.22866 c -0.0183,-0.14781 -0.0183,-0.35137 -0.0183,-0.59161 0,-0.29563 -0.0187,-0.35136 0.18485,-0.35136 0.29598,0 0.51788,0.16651 0.51788,0.44379 0,0.33267 -0.27728,0.49918 -0.68439,0.49918 m 0.0741,-1.86725 c -0.90593,0 -1.20191,0.35136 -1.20191,1.09079 0,1.31268 0,2.64407 0.24059,2.82892 0.0924,0.0737 0.36972,0.0737 0.51753,0.0737 0.16651,0 0.25894,-0.037 0.31432,-0.11077 0.0741,-0.11113 0.12947,-0.38841 0.12947,-1.16487 1.03541,0 1.66406,-0.62865 1.66406,-1.36807 0,-0.62865 -0.53623,-1.34973 -1.66406,-1.34973"
         style="fill:#009b3e;fill-opacity:1;fill-rule:nonzero;stroke:none;stroke-width:0.35277778"
         id="path15126"
         inkscape:connector-curvature="0" />
      <path
         d="m 137.46041,231.15235 c -0.6283,0 -0.53622,0.92957 -0.53622,1.9364 0,0.7747 -0.25859,0.94897 -0.51753,0.94897 -0.62865,0 -0.66569,-0.50341 -0.66569,-0.94897 0,-0.46461 0.12947,-1.76213 -0.33267,-1.76213 -0.46249,0 -0.77681,0.29069 -0.77681,1.74308 0,1.29716 0.62865,2.07186 1.68275,2.14947 0.94297,0.0773 1.66405,-0.38735 1.66405,-1.76248 0,-0.50341 0.0741,-1.9946 0,-2.13007 -0.0557,-0.11606 -0.0741,-0.17427 -0.51788,-0.17427"
         style="fill:#009b3e;fill-opacity:1;fill-rule:nonzero;stroke:none;stroke-width:0.35277778"
         id="path15130"
         inkscape:connector-curvature="0" />
      <path
         d="m 126.1765,234.23344 c -0.24024,0 -0.38806,0.0183 -0.49918,-0.0554 -0.0924,-0.0557 -0.11113,-0.20355 -0.12947,-0.49953 0.16651,0.0187 0.36971,0.0187 0.55457,0.0187 0.77681,0 0.77681,-0.2219 0.77681,-0.55492 0,-0.35102 -0.27728,-0.35102 -0.68403,-0.35102 -0.29598,0 -0.49954,0.0183 -0.64735,0.0741 0.0183,-0.31468 0.037,-0.629 0.0741,-0.72143 0.40676,0.0187 0.42545,0.037 0.68404,0.037 0.68404,0 0.72108,-0.29563 0.72108,-0.62865 0,-0.2032 -0.18486,-0.25894 -0.40676,-0.27728 -0.49918,-0.037 -1.38676,-0.18486 -1.83021,0.25893 -0.42545,0.42545 -0.35136,2.21862 -0.29598,2.69946 0.0924,0.83185 0.75812,0.92428 1.4792,0.92428 0.38841,0 1.12783,-0.0737 1.12783,-0.48049 0,-0.31432 -0.27728,-0.44379 -0.92463,-0.44379"
         style="fill:#009b3e;fill-opacity:1;fill-rule:nonzero;stroke:none;stroke-width:0.35277778"
         id="path15134"
         inkscape:connector-curvature="0" />
      <path
         d="m 115.10051,233.24524 c 0.0924,-0.40675 0.20355,-0.77646 0.36971,-1.01706 0.0741,0.2219 0.12947,0.59196 0.20355,0.98002 -0.18485,0 -0.36971,0.0187 -0.57326,0.037 m 0.29598,-2.03376 c -0.29598,0 -0.57326,0.0737 -0.81386,0.36971 -0.38805,0.48083 -0.92428,2.44087 -0.92428,3.03212 0,0.37007 0.18486,0.55492 0.51788,0.55492 0.29563,0 0.66534,-0.0741 0.72108,-0.49918 0.0183,-0.12947 0.0367,-0.29598 0.0737,-0.46249 0.29598,-0.0737 0.59196,-0.0924 0.88759,-0.0924 0.0924,0.37007 0.20355,0.68439 0.33267,0.85055 0.0928,0.11112 0.2219,0.14817 0.31468,0.14817 0.29562,0 0.5916,-0.12947 0.68403,-0.2219 -0.0741,-0.38841 -1.0354,-3.3468 -1.07244,-3.45758 -0.0554,-0.14816 -0.4438,-0.22189 -0.72108,-0.22189"
         style="fill:#009b3e;fill-opacity:1;fill-rule:nonzero;stroke:none;stroke-width:0.35277778"
         id="path15138"
         inkscape:connector-curvature="0" />
      <path
         d="m 128.53118,233.02331 c 0,-0.0924 0,-0.16616 0.0187,-0.24024 0.0737,-0.49918 0.29562,-0.70273 0.55456,-0.70273 0.2219,0 0.35137,0.11077 0.35137,0.29598 0,0.40675 -0.44379,0.53587 -0.92463,0.64699 m 0.92463,0.49918 c 0.44379,-0.0737 0.94298,-0.48048 0.94298,-1.22026 0,-0.62865 -0.51788,-1.10913 -1.29435,-1.10913 -1.38677,0 -1.8489,0.81315 -1.8489,2.20027 0,0.59126 0.2032,1.22026 0.36971,1.49755 0.12947,0.22189 0.27728,0.24024 0.44379,0.24024 0.18486,0 0.31433,-0.0183 0.38806,-0.14782 0.0557,-0.11112 0.0557,-0.6103 0.0557,-1.10948 0.12946,0.16651 0.5916,0.66569 0.99836,0.99836 0.29598,0.24059 0.42545,0.31432 0.53622,0.31432 0.16651,0 0.53622,-0.24024 0.53622,-0.53622 0,-0.12912 -0.0741,-0.2219 -0.18485,-0.35101 -0.2219,-0.25894 -0.53623,-0.49918 -0.94298,-0.77682"
         style="fill:#009b3e;fill-opacity:1;fill-rule:nonzero;stroke:none;stroke-width:0.35277778"
         id="path15142"
         inkscape:connector-curvature="0" />
      <path
         d="m 139.36584,233.18096 v -0.38841 c 0,-0.38805 0.0554,-0.66534 0.42545,-0.66534 0.2032,0 0.4251,0.14782 0.4251,0.46179 0,0.24059 -0.14782,0.4071 -0.85055,0.59196 m 0.24059,-2.05246 c -0.92463,-0.0183 -1.2573,0.27764 -1.2573,1.62736 v 1.9043 c 0,0.36971 0.0554,0.59161 0.68404,0.59161 0.29563,0 0.35137,-0.35137 0.35137,-0.59161 v -0.70274 c 0.12947,0.20356 0.31432,0.20356 0.73942,0.0741 0.57326,-0.16651 1.18357,-0.46214 1.16487,-1.34973 0.0187,-0.90593 -0.53622,-1.53458 -1.6824,-1.55328"
         style="fill:#009b3e;fill-opacity:1;fill-rule:nonzero;stroke:none;stroke-width:0.35277778"
         id="path15146"
         inkscape:connector-curvature="0" />
      <path
         d="m 125.41288,230.36946 c 1.10949,0 2.08915,-0.46214 2.08915,-1.42381 0,-0.14781 -0.0554,-0.33267 -0.12947,-0.38841 -0.14781,-0.11077 -0.35101,-0.0924 -0.66534,-0.0367 -0.29598,0.0367 -0.51788,0.11077 -1.0541,0.11077 -0.79516,0 -1.34973,-0.70026 -1.34973,-1.42169 0,-0.86889 0.77647,-1.09079 1.55328,-1.09079 1.07245,0 1.41253,-0.0155 1.50495,-0.38417 0.24307,-0.97191 -0.6544,-1.41147 -2.07821,-1.41147 -1.4792,0 -2.81058,1.20192 -2.81058,2.81058 0,2.23732 1.60867,3.23568 2.94005,3.23568"
         style="fill:#009b3e;fill-opacity:1;fill-rule:nonzero;stroke:none;stroke-width:0.35277778"
         id="path15150"
         inkscape:connector-curvature="0" />
      <path
         d="m 110.53595,230.61962 c 0.66569,0 0.98002,-0.38806 0.98002,-1.01706 0,-0.36971 -0.16651,-1.62701 -0.16651,-2.18158 0,-0.68403 0.12946,-1.14617 0.51752,-1.14617 -0.11077,0.92428 0.12947,2.77319 1.23896,2.77319 1.29434,0 0.6103,-2.07081 1.38677,-2.07081 0.27728,0 0.31432,0.24024 0.31432,1.2573 v 1.2386 c 0,0.73978 0.14781,1.0541 0.77646,1.0541 0.72108,0 0.88759,-0.0924 0.96168,-0.36971 0.18485,-0.70273 0.25858,-1.40547 0.25858,-2.44087 0,-1.95968 -0.35101,-3.19863 -1.73778,-3.19863 -0.75812,0 -1.34973,0.42545 -1.77518,0.86924 -0.33267,-0.8322 -0.83185,-1.20191 -1.51624,-1.20191 -1.58997,0 -2.4959,2.0708 -2.4959,4.08622 0,2.01507 0.90593,2.34809 1.2573,2.34809"
         style="fill:#009b3e;fill-opacity:1;fill-rule:nonzero;stroke:none;stroke-width:0.35277778"
         id="path15154"
         inkscape:connector-curvature="0" />
      <path
         d="m 133.4652,231.20682 c -0.83009,0.0286 -1.37195,0.59443 -1.3395,1.18004 0.0596,1.08585 1.21179,1.19521 1.23367,1.59138 0.008,0.15522 -0.0974,0.24765 -0.28152,0.25788 -0.33196,0.0183 -0.54963,-0.24624 -0.67874,-0.23918 -0.11078,0.006 -0.32668,0.45014 -0.33338,0.65793 -0.0275,0.17427 0.38241,0.56656 1.23014,0.51999 0.77399,-0.043 1.22555,-0.56903 1.18745,-1.25835 -0.0476,-0.86149 -1.19133,-1.1617 -1.21426,-1.57516 -0.006,-0.10336 0.0825,-0.17744 0.30374,-0.18979 0.33161,-0.0183 0.50412,0.0935 0.72531,0.0811 0.11042,-0.006 0.17745,-0.13088 0.16439,-0.37218 -0.0229,-0.41346 -0.39017,-0.7045 -0.9973,-0.6537"
         style="fill:#009b3e;fill-opacity:1;fill-rule:nonzero;stroke:none;stroke-width:0.35277778"
         id="path15158"
         inkscape:connector-curvature="0" />
      <path
         d="m 119.73464,225.73403 c 0.0995,0.35242 0.42827,1.85667 0.47625,2.07998 0,0 -0.67204,0.0212 -0.81809,0.0575 0,0 0.18591,-1.48555 0.28398,-1.9244 z m -1.75789,4.60516 c 1.15182,0.0674 1.20544,-1.03011 1.31586,-1.10102 0.1845,-0.11959 1.11689,-0.0713 1.11689,-0.0713 0.26635,0.79093 0.20885,1.25871 0.99978,1.25871 0.39581,0 0.79128,-0.22331 0.79128,-0.79128 0,-0.97225 -0.48966,-3.42477 -0.9712,-4.84364 -0.0861,-0.17145 -0.14429,-0.21308 -0.31327,-0.28434 -0.502,-0.15275 -1.70744,-0.30127 -2.42605,0.0695 -0.17216,0.0864 -0.21202,0.12947 -0.2981,0.30163 -0.39722,0.97155 -0.79092,2.99402 -0.87736,4.36139 -0.043,0.79092 0,1.10031 0.52494,1.10031 z"
         style="fill:#009b3e;fill-opacity:1;fill-rule:nonzero;stroke:none;stroke-width:0.35277778"
         id="path15162"
         inkscape:connector-curvature="0" />
    </g>
  </g>
</svg>
