<svg xmlns="http://www.w3.org/2000/svg" width="376.667" height="90.773"><path d="M196.384 39.117c-2.117 2.195-4.984 3.295-8.604 3.295H176.4V18.226h11.252c3.619 0 6.508 1.144 8.66 3.43 2.159 2.286 3.233 5.233 3.233 8.856 0 3.54-1.052 6.402-3.161 8.605zm15.515-28.323c-2.459-2.541-5.584-4.592-9.374-6.15-3.797-1.542-8.365-2.324-13.71-2.324h-31.423v86.253H176.4V58.186h13.321c3.878 0 7.584-.603 11.12-1.809 3.534-1.208 6.662-2.976 9.378-5.304 2.714-2.328 4.868-5.235 6.462-8.726 1.595-3.492 2.394-7.567 2.394-12.217 0-3.627-.582-7.12-1.746-10.474a23.728 23.728 0 00-5.43-8.862zm144.657 59.192c-1.055.458-2.181.86-3.379 1.198-2.278.65-4.972.969-8.078.969-3.795 0-7.204-.691-10.218-2.067-3.017-1.379-5.604-3.277-7.754-5.69-2.159-2.414-3.818-5.26-4.984-8.537-1.162-3.274-1.746-6.808-1.746-10.606 0-3.706.584-7.216 1.746-10.535 1.166-3.323 2.825-6.226 4.984-8.73 2.15-2.501 4.782-4.463 7.886-5.887 3.102-1.422 6.595-2.13 10.472-2.13 3.998 0 7.526.737 10.612 2.193.763.327 6.28 2.818 11.923 8.57l8.647-16.285A39.765 39.765 0 00365.72 4.52C359.731 1.59 352.728.127 344.71.127c-6.641 0-12.694 1.183-18.166 3.555-5.478 2.375-10.178 5.602-14.096 9.697-3.922 4.096-6.964 8.925-9.119 14.482-2.157 5.564-3.23 11.534-3.23 17.915 0 6.547 1.073 12.559 3.23 18.036 2.155 5.476 5.197 10.217 9.119 14.222 3.918 4.011 8.597 7.138 14.026 9.376 5.436 2.245 11.422 3.363 17.975 3.363 3.967 0 7.788-.474 11.448-1.422 3.664-.945 7.07-2.242 10.215-3.882a45.53 45.53 0 008.6-5.75c.476-.408.93-.826 1.388-1.246l-7.732-14.948c-2.156 1.631-6.208 4.332-11.811 6.46zM141.192 44.48c-2.415-2.155-5.152-3.902-8.21-5.24a57.62 57.62 0 00-9.373-3.17c-5.434-1.202-9.7-2.714-12.805-4.522-3.103-1.813-4.655-4.184-4.655-7.114 0-1.118.325-2.176.97-3.172.65-.983 1.508-1.851 2.585-2.584a14.44 14.44 0 013.623-1.745 13.18 13.18 0 014.072-.651c2.07 0 4.03.261 5.884.785a27.88 27.88 0 015.108 1.937 30.577 30.577 0 014.203 2.52 69.246 69.246 0 013.278 2.509l8.13-15.318a33.81 33.81 0 01-.287-.253c-1.508-1.333-3.448-2.627-5.819-3.878-2.373-1.249-5.238-2.327-8.6-3.23-3.363-.91-7.239-1.358-11.638-1.358-5.344 0-9.979.71-13.9 2.13-3.925 1.424-7.2 3.365-9.829 5.82-2.63 2.457-4.591 5.284-5.884 8.472-1.292 3.19-1.938 6.592-1.938 10.213 0 3.277.56 6.252 1.68 8.924a22.38 22.38 0 004.72 7.111c2.023 2.07 4.439 3.838 7.24 5.306 2.8 1.466 5.842 2.584 9.118 3.362 6.724 1.726 11.639 3.47 14.744 5.234 3.1 1.766 4.654 4.251 4.654 7.437 0 1.468-.37 2.783-1.1 3.944-.733 1.162-1.702 2.156-2.91 2.974a14.172 14.172 0 01-4.008 1.877 15.67 15.67 0 01-4.396.647c-2.504 0-4.852-.33-7.05-.972a29.433 29.433 0 01-6.077-2.519 35.302 35.302 0 01-2.825-1.76 171.524 171.524 0 01-6.593-4.497L84.74 79.835c.741.635 1.51 1.265 2.336 1.888 2.282 1.726 4.847 3.253 7.695 4.594 2.845 1.338 6.035 2.406 9.566 3.225 3.536.825 7.46 1.231 11.771 1.231 4.656 0 8.986-.667 12.995-2 4.01-1.336 7.502-3.212 10.477-5.627 2.973-2.417 5.318-5.254 7.046-8.535 1.726-3.276 2.587-6.855 2.587-10.732 0-4.483-.736-8.301-2.2-11.443-1.467-3.153-3.407-5.801-5.82-7.955zm139.237 25.505c-1.054.458-2.177.86-3.376 1.198-2.282.65-4.98.969-8.081.969-3.793 0-7.196-.691-10.217-2.067-3.018-1.379-5.606-3.277-7.76-5.69-2.154-2.414-3.815-5.26-4.976-8.537-1.166-3.274-1.746-6.808-1.746-10.606 0-3.706.58-7.216 1.746-10.535 1.161-3.323 2.822-6.226 4.976-8.73 2.154-2.501 4.789-4.463 7.892-5.887 3.1-1.422 6.593-2.13 10.47-2.13 4 0 7.53.737 10.614 2.193.762.327 6.278 2.818 11.922 8.57l8.648-16.285a39.785 39.785 0 00-10.945-7.929C283.604 1.59 276.601.127 268.583.127c-6.642 0-12.696 1.183-18.167 3.555-5.473 2.375-10.172 5.602-14.096 9.697-3.925 4.096-6.965 8.925-9.117 14.482-2.155 5.564-3.234 11.534-3.234 17.915 0 6.547 1.079 12.559 3.234 18.036 2.152 5.476 5.192 10.217 9.117 14.222 3.924 4.011 8.6 7.138 14.03 9.376 5.434 2.245 11.426 3.363 17.973 3.363 3.968 0 7.782-.474 11.446-1.422 3.664-.945 7.068-2.242 10.216-3.882a45.615 45.615 0 008.6-5.75c.479-.408.931-.826 1.388-1.246l-7.729-14.948c-2.159 1.631-6.216 4.332-11.815 6.46zM55.992 58.318L18.62 2.32H0v86.253h19.267V31.549l38.279 57.024H75.26V2.32H55.992v55.998" fill="#288b3d"/></svg>