
<svg height="68" viewBox="0 0 144 68" width="144" xmlns="http://www.w3.org/2000/svg" xmlns:xlink="http://www.w3.org/1999/xlink"><mask id="a" fill="#fff"><path d="m0 66.4615385h143.742397v-66.4615385h-143.742397z" fill="#fff" fill-rule="evenodd"/></mask><g fill="#2c1951" fill-rule="evenodd" transform="translate(.114122 .646742)"><path d="m1.89183256 59.3782854c1.20011785 0 1.79588041-.591716 1.79588041-1.2756296 0-.8270262-.54277407-1.2659969-1.70136039-1.2659969h-.62583712v2.5416265zm2.41169267 3.9920187-2.7324879-2.8595018h-.21052187v2.8595018h-1.36051546v-7.7280859h1.69849615c1.48797428 0 3.41274563.3674144 3.41274563 2.3875052 0 1.0623366-.86213717 2.0737581-2.10521866 2.2870511l3.17644557 3.0535296z"/><path d="m10.9473889 60.6750318c0-1.0226743-.7492975-1.7121943-1.65610031-1.7121943-.98784931 0-1.72491335.68952-1.72491335 1.7422328 0 .9926357.81658132 1.6712327 1.69280061 1.6712327 1.01843285 0 1.68821305-.6581162 1.68821305-1.7012712m-1.67903798 2.6952723c-1.73561761 0-3.08588223-1.1960783-3.08588223-2.6952723 0-1.5087518 1.35026462-2.7143878 3.11952415-2.7143878 1.73561756 0 3.06294456 1.2261168 3.06294456 2.7143878 0 1.4787132-1.3609689 2.6952723-3.09658648 2.6952723"/><path d="m11.9755834 66.4615385 1.9467698-3.586456-2.3302244-4.9144385h1.4335304l1.6296823 3.5638713 1.631157-3.5638713h1.488099l-4.3448361 8.5008945z"/><path d="m21.2682653 61.2525901c-.2223616-.2130002-.7189235-.4355582-1.2141212-.4355582-.6793622 0-1.0326851.3945966-1.0326851.7905586 0 .3945966.3533229.809674 1.1431838.809674.4256245 0 .8607982-.1215193 1.1036225-.2730772zm1.1431837 1.428194c-.3942483.3645581-1.2850586.68952-2.2563555.68952-1.6697577 0-2.380496-.9530396-2.380496-1.8132329 0-.8915971.7516638-1.672598 2.0053462-1.672598.5170246 0 1.1445479.1324424 1.4883216.4574043v-.5980391c0-.4860775-.263287-.7905586-1.1227211-.7905586-.6588994 0-1.1540972.1815963-1.4282976.293558l-.3642363-.8711164c.444723-.2130002 1.0736105-.4150774 1.9234953-.4150774 1.6902204 0 2.1349434.8001163 2.1349434 2.0357908z"/><path d="m23.9570662 63.3703041h1.352415v-7.7280859h-1.352415z" mask="url(#a)"/><path d="m35.549195 62.2852377c-.7762959.7098565-1.7906356 1.0850664-3.0035978 1.0850664-2.7549406 0-4.7244881-1.9339969-4.7244881-4.2663828 0-2.2787844 1.8679619-4.2345116 4.566803-4.2345116 1.742117 0 2.8216535.8272002 3.1051834 1.1502573l-.7656824.9561333c-.597384-.5591931-1.4616196-.8590713-2.339501-.8590713-1.9119318 0-3.0369543 1.4081237-3.0369543 2.9553212 0 1.697861 1.3388071 3.062524 3.2613523 3.062524 1.0704392 0 1.936191-.4186705 2.272788-.7417276z" mask="url(#a)"/><path d="m40.312586 60.6750318c0-1.0226743-.7477683-1.7121943-1.6561003-1.7121943-.9878493 0-1.7249133.68952-1.7249133 1.7422328 0 .9926357.8165813 1.6712327 1.6928006 1.6712327 1.019962 0 1.688213-.6581162 1.688213-1.7012712m-1.679038 2.6952723c-1.7340884 0-3.084353-1.1960783-3.084353-2.6952723 0-1.5087518 1.3502646-2.7143878 3.117995-2.7143878 1.7371467 0 3.0644737 1.2261168 3.0644737 2.7143878 0 1.4787132-1.3624981 2.6952723-3.0981157 2.6952723" mask="url(#a)"/><path d="m41.7316637 63.3703041h1.352415v-7.7280859h-1.352415z" mask="url(#a)"/><path d="m44.0500894 63.3703041h1.3524151v-7.7280859h-1.3524151z" mask="url(#a)"/><path d="m50.4729376 60.1485449c-.0314516-.6692081-.4989354-1.2469123-1.3252524-1.2469123-.7319625 0-1.3810073.446594-1.4753619 1.2469123zm1.1136694 2.542991c-.2859228.2431001-1.1236767.6787682-2.2587904.6787682-1.771292 0-2.9593014-1.0529785-2.9593014-2.6741011 0-1.5815164 1.1236768-2.735559 2.7991846-2.735559 1.7398405 0 2.6104755 1.2359865 2.6104755 2.6536152v.497126h-4.1158592c.0743399.6582823.6990813 1.2660325 1.8770834 1.2660325.8277466 0 1.3681408-.3236782 1.6554932-.5367322z" mask="url(#a)"/><path d="m56.6638077 59.2297589c-.2208327-.0971779-.5839469-.226265-1.0137555-.226265-.8996339 0-1.7355375.5279518-1.7355375 1.8304263 0 .7730723.450558 1.8072197 1.4835807 1.8072197.5943216 0 1.0448796-.3016868 1.2657123-.6570389zm0 3.8305515c-.3734889.3988647-1.0226481.6454356-1.5072944.6454356-1.3190678 0-2.6055294-1.0863624-2.6055294-2.8718258 0-1.8739388 1.4509746-2.8732762 3.0575695-2.8732762 1.1426981 0 1.8363203.2799305 2.3520906.5584106v5.2838694c0 2.055241-1.3857622 2.6586145-2.6707418 2.6586145-1.1990178 0-2.0793844-.3872614-2.5077109-.657039l.5394839-.9688786c.2845629.2161122 1.0315407.5700139 1.9341388.5700139.7484598 0 1.4079937-.3437488 1.4079937-1.4301112z" mask="url(#a)"/><path d="m62.8378749 60.1485449c-.0300219-.6692081-.4989353-1.2469123-1.3252523-1.2469123-.7305329 0-1.3795777.446594-1.4753619 1.2469123zm1.1136695 2.542991c-.2859228.2431001-1.1236768.6787682-2.2587904.6787682-1.771292 0-2.9593014-1.0529785-2.9593014-2.6741011 0-1.5815164 1.1236767-2.735559 2.7991846-2.735559 1.7412701 0 2.6104755 1.2359865 2.6104755 2.6536152v.497126h-4.1158593c.07434.6582823.700511 1.2660325 1.8785131 1.2660325.8277466 0 1.3681408-.3236782 1.652634-.5367322z" mask="url(#a)"/><path d="m71.2249295 60.6750318c0-1.0226743-.7477683-1.7121943-1.6561003-1.7121943-.9878493 0-1.7249134.68952-1.7249134 1.7422328 0 .9926357.8165814 1.6712327 1.6928006 1.6712327 1.0199621 0 1.6882131-.6581162 1.6882131-1.7012712m-1.679038 2.6952723c-1.7340884 0-3.084353-1.1960783-3.084353-2.6952723 0-1.5087518 1.3502646-2.7143878 3.1195241-2.7143878 1.7356176 0 3.0629446 1.2261168 3.0629446 2.7143878 0 1.4787132-1.3624981 2.6952723-3.0981157 2.6952723" mask="url(#a)"/><path d="m73.5884677 63.3703041v-4.4016776h-.9444605v-1.0353467h.9444605v-.7561521c0-.6354586.1559109-1.2505593.511208-1.6606263.4122645-.4638703 1.0808826-.6470917 1.6925333-.6470917.8095376 0 1.4002002.3228187 1.4886497.388255l-.511208.9815436c-.1229298-.0872484-.4662337-.2908278-.9099803-.2908278-.6581241 0-.969946.4522371-.969946 1.2083892v.7765101h1.4136926v1.0353467h-1.4136926v4.4016776z" mask="url(#a)"/><path d="m83.2197642 57.9870829c-.0547681-.1076063-.1317395-.2908277-.1435812-.388255-.0192429.0974273-.1095362.2690156-.1643043.388255l-1.1856549 2.5345636h2.6925173zm2.5370943 5.3832212-.7578718-1.5966442h-3.8530086l-.7489905 1.5966442h-1.5705118l4.2615489-8.5008944 4.2393456 8.5008944z" mask="url(#a)"/><path d="m90.74875 63.3703041v-2.8664173c0-.9175345-.1653042-1.4599057-1.0098835-1.4599057-.5042472 0-1.0307202.3864043-1.1960243.6041958v3.7221272h-1.2154719v-5.2649341h1.2154719v.5423711c.2680983-.250109.866805-.6870971 1.669711-.6870971 1.1335144 0 1.7516686.5732835 1.7516686 1.8968938v3.5127663z" mask="url(#a)"/><path d="m96.2303618 61.2525901c-.222427-.2130002-.7191351-.4355582-1.2144785-.4355582-.6795621 0-1.032989.3945966-1.032989.7905586 0 .3945966.3534269.809674 1.1421556.809674.4271143 0 .8624162-.1215193 1.1053119-.2730772zm1.1435201 1.428194c-.3943643.3645581-1.2854367.68952-2.2570195.68952-1.6702491 0-2.379832-.9530396-2.379832-1.8132329 0-.8915971.7491558-1.672598 2.0045718-1.672598.5171768 0 1.1448847.1324424 1.4887596.4574043v-.5980391c0-.4860775-.2633645-.7905586-1.1244161-.7905586-.6577288 0-1.1530722.1815963-1.4273533.293558l-.3643436-.8711164c.4448539-.2130002 1.0725619-.4150774 1.9226969-.4150774 1.6920823 0 2.1369362.8001163 2.1369362 2.0357908z" mask="url(#a)"/><path d="m102.251113 60.1485449c-.031452-.6692081-.500365-1.2469123-1.325252-1.2469123-.731963 0-1.3810078.446594-1.4753623 1.2469123zm1.113669 2.542991c-.285923.2431001-1.123676.6787682-2.25879.6787682-1.7712921 0-2.9593015-1.0529785-2.9593015-2.6741011 0-1.5815164 1.1236768-2.735559 2.7991845-2.735559 1.739841 0 2.610476 1.2359865 2.610476 2.6536152v.497126h-4.1158596c.0743399.6582823.6990816 1.2660325 1.8770836 1.2660325.827746 0 1.368141-.3236782 1.654063-.5367322z" mask="url(#a)"/><path d="m104.777284 61.856361c.306539.2924508.897623.6161871 1.428225.6161871.468744 0 .76566-.253004.76566-.5862619 0-.9385631-2.274988-1.0487422-2.274988-2.4620278 0-.7671734.673562-1.4636144 1.793873-1.4636144.837141 0 1.459841.3835867 1.683904.57538l-.448125.8270237c-.082477-.0897756-.552595-.4937658-1.091444-.4937658-.389016 0-.673562.2121969-.673562.5141694 0 .8487875 2.232375.8882343 2.232375 2.4429845 0 .9072777-.753289 1.5438683-1.92721 1.5438683-.877005 0-1.550566-.3536614-1.936833-.6665158z" mask="url(#a)"/><path d="m123.116945 60.1485449c-.030022-.6692081-.498936-1.2469123-1.325253-1.2469123-.730532 0-1.379577.446594-1.475361 1.2469123zm1.113669 2.542991c-.285923.2431001-1.123677.6787682-2.25879.6787682-1.771292 0-2.959302-1.0529785-2.959302-2.6741011 0-1.5815164 1.123677-2.735559 2.799185-2.735559 1.73984 0 2.610475 1.2359865 2.610475 2.6536152v.497126h-4.115859c.07434.6582823.700511 1.2660325 1.878513 1.2660325.826317 0 1.366711-.3236782 1.654064-.5367322z" mask="url(#a)"/><path d="m129.223109 63.3703041h1.206437v-5.2458583h-1.206437zm-.164075-6.9384771c0-.4676052.328151-.7896088.766604-.7896088.470165 0 .779013.3318037.779013.7896088 0 .4676052-.32815.7896088-.779013.7896088-.438453 0-.766604-.3220036-.766604-.7896088z" mask="url(#a)"/><path d="m131.824369 61.856361c.308023.2924508.897943.6161871 1.428733.6161871.46891 0 .765933-.253004.765933-.5862619 0-.9385631-2.275798-1.0487422-2.275798-2.4620278 0-.7671734.673802-1.4636144 1.794512-1.4636144.837438 0 1.46036.3835867 1.684502.57538l-.448284.8270237c-.082506-.0897756-.552792-.4937658-1.091833-.4937658-.389154 0-.673801.2121969-.673801.5141694 0 .8487875 2.23317.8882343 2.23317 2.4429845 0 .9072777-.753557 1.5438683-1.927896 1.5438683-.877317 0-1.551118-.3536614-1.936147-.6665158z" mask="url(#a)"/><path d="m140.326638 61.856361c.305273.2924508.896568.6161871 1.428734.6161871.46891 0 .764557-.253004.764557-.5862619 0-.9385631-2.275797-1.0487422-2.275797-2.4620278 0-.7671734.673801-1.4636144 1.795886-1.4636144.836063 0 1.458986.3835867 1.683128.57538l-.448284.8270237c-.081131-.0897756-.551417-.4937658-1.091833-.4937658-.389155 0-.673801.2121969-.673801.5141694 0 .8487875 2.233169.8882343 2.233169 2.4429845 0 .9072777-.753557 1.5438683-1.926521 1.5438683-.878692 0-1.551118-.3536614-1.937522-.6665158z" mask="url(#a)"/><path d="m117.024242 63.3703041v-2.8072107c0-.8985826-.165304-1.4297509-1.009884-1.4297509-.504247 0-1.03072.378423-1.196024.591716v3.6452456h-1.215472v-7.7280859h1.215472v3.1030687c.268098-.2449429.866805-.6729049 1.669711-.6729049 1.134904 0 1.751669.5614421 1.751669 1.8577129v3.4402092z" mask="url(#a)"/><path d="m112.057245 59.0676607v-.9765643l-1.241778-.0027431v-1.6733265h-1.15591v1.6733265h-.693546v.9793074h.693546v2.1835538c.015852.7831716.136067 1.179558.449154 1.5663433.364607.4389053.951149.5527463 1.490133.5527463.150599 0 .310445-.0219453.458401-.05212v-1.0369137c-.118894.0397758-.248355.0713221-.400275.0713221-.577295 0-.815082-.5033695-.841503-1.1397822v-2.1451496z" mask="url(#a)"/><path d="m127.513417 59.0676607v-.9765643l-1.242309-.0027431v-1.6733265h-1.156404v1.6733265h-.692522v.9793074h.692522v2.1835538c.01718.7831716.137446 1.179558.449345 1.5663433.364763.4389053.952878.5527463 1.492092.5527463.149342 0 .309256-.0219453.457276-.05212v-1.0369137c-.117623.0397758-.248462.0713221-.399125.0713221-.578863 0-.81543-.5033695-.843184-1.1397822v-2.1451496z" mask="url(#a)"/><path d="m138.332737 59.0676607v-.9765643l-1.242309-.0027431v-1.6733265h-1.156404v1.6733265h-.692521v.9793074h.692521v2.1835538c.017181.7831716.137447 1.179558.449345 1.5663433.364764.4389053.952878.5527463 1.490771.5527463.150663 0 .310577-.0219453.458597-.05212v-1.0369137c-.117623.0397758-.248462.0713221-.399125.0713221-.578863 0-.81543-.5033695-.841862-1.1397822l-.001322-2.1451496z" mask="url(#a)"/><path d="m11.1582149 23.6813223c7.9778401 0 12.212523-3.8589635 12.212523-9.1271234 0-5.81819648-4.1125286-8.51323037-10.985163-8.51323037h-6.49162925v17.64035377zm16.8776544 23.4600015-18.41330864-18.2542468h-3.72861501v18.2542468h-5.89394565v-46.36851521h11.2178378c7.9792943 0 18.2911543 2.38881302 18.2911543 13.72043641 0 7.4726599-5.2788114 12.9860868-13.3788058 14.0876112l20.1918173 18.5604676z" mask="url(#a)"/><path d="m71.8711986 41.5650044c-4.2040325 3.8234743-8.8815962 5.5763194-15.2785976 5.5763194-14.3199857 0-23.3618318-10.4926257-23.3618318-23.5404652 0-13.1082329 8.6765919-23.6008586 22.9344988-23.6008586 7.9807321 0 12.9022798 3.26986854 15.5225816 5.87972404l-3.2280964 4.06648559c-2.9263646-2.91326018-6.5052783-4.66610528-12.7810095-4.66610528-10.178032 0-16.2314346 7.51897215-16.2314346 18.62415895 0 10.3171973 6.9687036 18.0173495 17.205927 18.0173495 6.2757312 0 10.1000726-1.9340252 12.5370255-4.1800826z" mask="url(#a)"/><path d="m100.919795 15.8729535c0-6.59335843-4.8040463-11.29463419-10.4705449-11.29463419-6.2210361 0-10.5945865 4.76203071-10.5945865 11.47834559 0 6.470402 4.9879197 11.1716777 10.4720046 11.1716777 6.2823271 0 10.5931268-4.5783193 10.5931268-11.3553891m-10.4705449 15.8121986c-9.1148467 0-16.2596258-6.9593347-16.2596258-15.8121986 0-8.91361883 7.1447791-15.8729535 16.3209168-15.8729535 9.1148468 0 16.1370439 7.14304606 16.1370439 15.8729535 0 8.731354-7.0849474 15.8121986-16.1983349 15.8121986" mask="url(#a)"/><path d="m115.148479 42.5044723c0-2.9878937 2.420657-5.4096601 5.410375-5.4096601 2.988289 0 5.408946 2.4217664 5.408946 5.4096601 0 2.9878936-2.420657 5.4096601-5.408946 5.4096601-2.989718 0-5.410375-2.4217665-5.410375-5.4096601" mask="url(#a)"/><path d="m120.574742 29.3757875c-3.017356 0-5.461559-2.4511174-5.461559-5.4752232 0-3.0241057 2.444203-5.4752231 5.461559-5.4752231 3.0188 0 5.463003 2.4511174 5.463003 5.4752231 0 3.0241058-2.444203 5.4752232-5.463003 5.4752232zm-.008662-29.3757875-22.4193895 47.136983h6.4577195l6.257044-13.8920764h19.403477l6.24405 13.8964172h6.460608z" mask="url(#a)"/></g></svg>
