<svg width="1492" height="935" viewBox="0 0 1492 935" fill="none" xmlns="http://www.w3.org/2000/svg">
<path d="M1491.46 0V370.071L1188.6 251.455V369.417H0V0H1491.46ZM798.155 778.516C781.412 778.516 771.383 791.743 771.323 804.569H824.973C824.91 791.743 814.889 778.516 798.155 778.516ZM472.243 819.818C472.243 839.828 460.238 853.885 442.285 853.885C423.98 853.885 412.328 839.432 412.328 819.818C412.328 801.19 423.184 785.752 442.285 785.752C458.986 785.752 472.243 798.398 472.243 819.818ZM1226.29 830.373C1227.4 850.647 1212.79 864.188 1195.75 864.188C1183.27 864.188 1177.15 856.764 1177.15 848.246C1177.15 836.149 1189.24 828.91 1210.82 828.91C1216.67 828.91 1222.3 829.443 1226.29 830.373ZM1491.46 561.12V934.177H0.000808716V564.738H1188.59V682.663L1491.46 561.12ZM221.535 832.48C221.535 806.1 209.833 789.173 186.301 775.536C166.172 763.875 118.771 753.965 108.327 745.465C104.282 742.172 101.538 739.201 101.538 733.031C101.538 722.249 112.612 715.21 129.58 715.21C149.787 715.21 163.998 726.702 165.256 742.312L165.264 742.423H218.252L218.249 742.304C217.093 695.161 175.928 669.065 131.025 669.065C106.218 669.065 85.0763 675.687 69.886 688.222C62.5341 694.289 56.8343 701.56 52.936 709.841C48.9804 718.248 46.9737 727.523 46.9737 737.394C46.9737 757.85 52.1299 769.952 65.6102 782.477C87.3167 802.645 138.776 810.809 156.462 820.82C163.281 824.678 166.953 830.191 166.953 837C166.953 850.137 153.89 856.941 135.572 856.941C110.81 856.941 95.7802 845.198 94.346 824.723L94.3381 824.62H41.0584L41.0611 824.736C41.7703 872.841 76.6812 903.286 136.147 903.286C186.916 903.286 221.535 876.851 221.535 832.48ZM363.024 887.068L345.557 850.524L345.499 850.4L345.386 850.477C338.481 855.443 330.286 858.403 323.469 858.403C311.844 858.403 306.191 851.375 306.191 836.922V785.027H344.025V742.184H306.086V691.137H276.06L253.652 742.184H228.242V785.228H250.839V835.343C250.839 876.696 271.367 902.131 311.633 902.131C329.671 902.131 349.334 896.382 362.943 887.121L363.024 887.068ZM526.857 819.818C526.857 771.951 492.243 737.206 444.553 737.206C396.863 737.206 362.248 771.951 362.248 819.818C362.248 842.998 370.504 864.051 385.495 879.1C400.488 894.145 421.459 902.436 444.553 902.436C467.647 902.436 488.618 894.145 503.611 879.1C518.602 864.051 526.857 842.998 526.857 819.818ZM701.841 798.619C701.841 759.243 681.694 737.247 645.396 737.247C624.438 737.247 608.72 745.903 598.386 757.289L595.571 742.184H545.396V897.248H600.972V813.14C600.972 799.649 607.795 786.548 626.032 786.548C638.317 786.548 646.26 794.538 646.26 810.227V897.248H701.841V798.619ZM799.642 737.083C753.638 737.083 719.757 771.345 719.757 820.183C719.757 868.265 748.427 902.45 805.439 902.45C831.005 902.45 851.02 897.58 872.367 886.169L872.464 886.117L855.02 849.48L854.968 849.366L854.855 849.43C843.45 856.435 826.799 860.79 811.405 860.79C787.557 860.79 774.799 851.635 773.289 836.277H877.008L877.016 836.166C881.001 766.102 845.672 737.083 799.642 737.083ZM1083.03 897.193L1132.21 742.185H1078.36L1052.73 826.406L1025.37 742.185H982.969L955.843 826.392L931.723 742.185H876.449L924.205 897.193H977.886L1004.33 817.75L1030.77 897.193H1083.03ZM1283.5 803.607C1283.5 762.02 1256.21 737.198 1210.49 737.198C1180.28 737.198 1158.47 743.133 1137.76 756.888L1158.69 791.615C1173.7 783.169 1187.69 779.183 1202.51 779.183C1218.09 779.183 1229.06 785.683 1228.56 800.519C1221.69 799.589 1215.25 799.209 1206.49 799.209C1182.64 799.209 1162.9 804.09 1149.41 813.332C1142.61 817.983 1137.38 823.727 1133.85 830.404C1130.25 837.224 1128.42 845.029 1128.42 853.613C1128.42 882.098 1149.59 900.495 1182.44 900.495C1198.14 900.495 1217.05 894.715 1228.56 882.93V897.249H1283.5V803.607ZM1362.63 669.067H1303.71V897.193H1362.52V669.315L1362.63 669.067ZM1443.89 669.065H1384.5L1384.5 669.067L1384.5 897.193H1416.6V897.192H1443.89V669.065Z" fill="#10003E"/>
</svg>
