<svg width="40" height="40" viewBox="0 0 40 40" fill="none" xmlns="http://www.w3.org/2000/svg">
<g clip-path="url(#clip0_288_5921)">
<path d="M29.5 0C30.8807 1.64678e-08 32 1.1193 32 2.5C32 3.88071 30.8807 5 29.5 5H6.5C5.66635 5 5.00011 5.67022 5 6.49316C5.00015 14.0816 5.00048 30.4549 5 37.5C4.99991 38.8807 3.88063 40 2.5 40C1.11935 39.9999 -2.11817e-06 38.8806 0 37.5C0.000483597 30.4553 0.000149875 14.0817 0 6.49316C0.000113573 2.89813 2.9156 1.98311e-07 6.5 0H29.5ZM37.5 0C38.8807 9.48867e-05 40 1.11937 40 2.5C39.9995 9.54468 39.9999 25.9183 40 33.5068C39.9999 37.1019 37.0844 40 33.5 40H28C26.4909 40 25.1032 39.484 24 38.6211C22.8964 39.4838 21.5088 40 20 40H14.5C10.9101 40 8 37.0899 8 33.5V10.5C8 9.11929 9.11929 8 10.5 8C11.8807 8 13 9.11929 13 10.5V33.5C13 34.3284 13.6716 35 14.5 35H20C20.8306 35 21.5 34.329 21.5 33.5029V10.5C21.5 9.11929 22.6193 8 24 8C25.3807 8 26.5 9.11929 26.5 10.5V33.5C26.5 34.3284 27.1716 35 28 35H33.5C34.3337 35 34.9999 34.3298 35 33.5068C34.9999 25.9184 34.9995 9.54505 35 2.5C35.0001 1.11935 36.1194 -2.11781e-06 37.5 0Z" fill="#B34A00"/>
</g>
<defs>
<clipPath id="clip0_288_5921">
<rect width="40" height="40" fill="white"/>
</clipPath>
</defs>
</svg>
